<?xml version="1.0" standalone="no"?>
<!DOCTYPE svg PUBLIC "-//W3C//DTD SVG 20010904//EN"
 "http://www.w3.org/TR/2001/REC-SVG-20010904/DTD/svg10.dtd">
<svg version="1.0" xmlns="http://www.w3.org/2000/svg"
 width="2148.000000pt" height="2148.000000pt" viewBox="0 0 2148.000000 2148.000000"
 preserveAspectRatio="xMidYMid meet">
<metadata>
Created by potrace 1.14, written by Peter Selinger 2001-2017
</metadata>
<g transform="translate(0.000000,2148.000000) scale(0.100000,-0.100000)"
fill="#000000" stroke="none">
<path d="M6304 21463 c2 -10 0 -20 -4 -23 -5 -3 -10 -16 -11 -30 -2 -14 -7
-27 -11 -30 -3 -3 -8 -18 -11 -35 -2 -16 -12 -48 -21 -69 -9 -22 -14 -46 -12
-53 3 -7 1 -13 -5 -13 -6 0 -9 -7 -5 -15 3 -8 1 -15 -4 -15 -6 0 -9 -3 -9 -7
1 -5 0 -10 -1 -13 -4 -13 -12 -47 -13 -62 -1 -10 -5 -18 -10 -18 -4 0 -6 -4
-2 -9 3 -5 1 -12 -5 -16 -6 -4 -8 -10 -5 -15 3 -5 1 -11 -5 -15 -6 -4 -8 -11
-4 -16 3 -5 2 -15 -4 -22 -9 -12 -33 -92 -33 -112 -1 -5 -5 -16 -11 -22 -6 -7
-8 -13 -4 -13 4 0 0 -12 -7 -27 -8 -16 -13 -37 -12 -48 4 -34 32 -170 35 -170
1 0 4 -11 6 -25 10 -71 17 -105 23 -110 4 -3 6 -15 5 -27 -1 -13 2 -23 5 -23
4 0 7 -9 7 -20 0 -11 -4 -20 -8 -20 -4 0 -8 -7 -8 -15 0 -8 -5 -15 -11 -15 -5
0 -8 -4 -5 -9 3 -5 -1 -14 -9 -21 -8 -7 -15 -19 -15 -26 0 -8 -5 -14 -11 -14
-5 0 -8 -4 -5 -9 3 -5 -1 -12 -10 -15 -9 -4 -14 -9 -11 -12 3 -3 -1 -13 -9
-22 -8 -10 -14 -21 -14 -25 1 -4 -5 -14 -12 -22 -32 -36 -71 -95 -63 -95 3 0
-6 -12 -20 -27 -23 -26 -26 -32 -24 -50 0 -3 -6 -10 -15 -15 -9 -5 -16 -16
-16 -23 0 -8 -4 -15 -9 -15 -5 0 -12 -11 -15 -25 -4 -14 -11 -25 -17 -25 -6 0
-7 -4 -4 -10 3 -5 1 -10 -5 -10 -6 0 -16 -13 -21 -30 -6 -16 -15 -30 -21 -30
-5 0 -7 -4 -4 -9 3 -5 -1 -12 -10 -15 -8 -3 -12 -10 -9 -16 3 -5 1 -10 -6 -10
-7 0 -10 -3 -6 -6 3 -3 -5 -18 -18 -32 -13 -14 -22 -29 -19 -34 3 -4 0 -8 -6
-8 -6 0 -9 -4 -6 -9 3 -5 -1 -12 -10 -15 -8 -3 -13 -10 -10 -15 3 -5 -1 -11
-9 -15 -8 -3 -15 -12 -15 -21 0 -8 -5 -15 -11 -15 -5 0 -7 -4 -4 -10 3 -5 1
-10 -5 -10 -6 0 -9 -4 -6 -9 3 -5 -1 -11 -9 -15 -8 -3 -15 -12 -15 -21 0 -8
-5 -15 -11 -15 -5 0 -7 -4 -4 -10 3 -5 1 -10 -5 -10 -6 0 -9 -4 -6 -9 3 -5 -1
-12 -10 -15 -8 -3 -13 -10 -10 -15 3 -5 -1 -12 -10 -15 -8 -3 -13 -10 -10 -15
4 -5 3 -11 -1 -13 -12 -5 -64 -88 -56 -88 5 0 0 -5 -10 -11 -9 -6 -15 -14 -12
-19 3 -4 -2 -11 -11 -14 -8 -3 -12 -10 -9 -16 3 -5 1 -10 -4 -10 -6 0 -11 -7
-11 -15 0 -8 -4 -15 -9 -15 -5 0 -13 -10 -17 -22 -4 -13 -14 -28 -23 -35 -9
-7 -13 -13 -9 -13 4 0 0 -9 -10 -20 -9 -12 -15 -22 -12 -23 2 -1 -5 -12 -15
-25 -11 -12 -18 -25 -17 -29 2 -3 0 -9 -5 -12 -19 -13 -72 -95 -67 -103 3 -4
1 -8 -4 -8 -5 0 -15 -13 -22 -30 -7 -16 -17 -30 -22 -30 -5 0 -6 -4 -3 -10 3
-5 -1 -10 -10 -10 -9 0 -14 -4 -11 -9 3 -4 -10 -30 -29 -57 -19 -27 -35 -55
-35 -61 0 -7 -5 -13 -11 -13 -5 0 -8 -4 -5 -9 3 -5 -1 -12 -10 -15 -9 -4 -14
-9 -11 -12 3 -4 -3 -15 -13 -27 -11 -11 -17 -23 -15 -27 3 -5 -2 -10 -10 -14
-8 -3 -15 -10 -15 -16 0 -6 -17 -37 -38 -68 -52 -79 -93 -158 -85 -166 3 -3 1
-6 -6 -6 -7 0 -10 -4 -7 -9 4 -5 1 -11 -4 -13 -6 -2 -13 -15 -15 -29 -3 -15
-11 -39 -19 -55 -8 -15 -13 -31 -10 -36 3 -4 0 -8 -6 -8 -7 0 -10 -7 -7 -15 4
-8 2 -17 -4 -21 -6 -3 -8 -12 -5 -20 3 -8 1 -14 -4 -14 -5 0 -7 -9 -5 -20 2
-11 -1 -20 -7 -20 -6 0 -8 -9 -5 -20 3 -11 1 -20 -5 -20 -5 0 -6 -9 -3 -20 4
-12 2 -20 -5 -20 -6 0 -8 -11 -6 -25 3 -13 1 -27 -3 -30 -5 -2 -7 -20 -6 -40
1 -19 -1 -35 -5 -35 -3 0 -6 -59 -5 -131 1 -99 -3 -135 -13 -145 -7 -8 -10
-14 -6 -14 4 0 1 -6 -8 -12 -17 -14 -50 -103 -40 -112 3 -3 0 -6 -5 -6 -6 0
-10 -11 -8 -25 1 -14 -1 -25 -6 -25 -4 0 -6 -16 -5 -35 2 -19 0 -37 -4 -40 -4
-3 -7 -22 -5 -42 1 -21 -1 -45 -6 -54 -5 -9 -5 -20 -1 -23 4 -4 8 -28 8 -54 5
-112 7 -132 15 -132 4 0 7 -9 6 -20 -1 -11 -5 -20 -9 -20 -4 0 -8 -7 -8 -15 0
-9 -12 -34 -27 -58 -15 -23 -26 -45 -25 -49 1 -5 -2 -8 -8 -8 -5 0 -16 -13
-24 -28 -35 -68 -195 -206 -301 -259 -49 -25 -166 -62 -206 -65 -20 -2 -29 -8
-29 -20 0 -10 5 -18 12 -18 6 0 8 -3 5 -6 -4 -4 3 -15 15 -25 11 -11 18 -19
14 -19 -4 0 3 -10 14 -22 12 -13 31 -39 43 -58 11 -19 27 -39 34 -43 7 -4 13
-15 13 -23 0 -8 7 -17 15 -20 8 -4 15 -10 15 -15 0 -10 24 -41 54 -70 11 -11
16 -19 10 -19 -5 0 -4 -4 1 -8 6 -4 30 -32 55 -62 25 -30 49 -60 55 -66 5 -7
24 -28 40 -48 60 -73 225 -236 239 -236 8 0 16 -6 19 -14 6 -15 86 -64 114
-69 38 -8 53 -20 53 -43 0 -13 4 -24 10 -24 5 0 7 -7 4 -15 -4 -8 -2 -15 3
-15 5 0 10 -6 10 -12 0 -12 62 -193 83 -243 5 -11 14 -38 21 -60 6 -22 15 -45
20 -51 5 -6 6 -13 3 -17 -3 -3 0 -16 7 -29 7 -12 14 -30 15 -38 2 -25 9 -45
16 -50 3 -3 8 -20 11 -38 3 -18 10 -39 16 -46 6 -7 8 -16 4 -19 -3 -4 0 -13 7
-22 7 -8 9 -15 5 -15 -4 0 -2 -7 5 -15 7 -8 10 -15 7 -15 -4 0 0 -18 8 -41 8
-23 13 -45 10 -49 -3 -5 -1 -11 5 -15 5 -3 10 -15 10 -26 0 -10 4 -19 8 -19 9
0 10 -7 13 -55 1 -14 5 -25 9 -25 3 0 7 -6 8 -12 2 -26 10 -63 16 -78 3 -8 7
-24 9 -35 2 -11 7 -27 10 -35 8 -21 18 -71 20 -97 0 -13 5 -23 10 -23 4 0 5
-4 2 -10 -3 -5 -3 -15 1 -21 17 -28 21 -203 5 -222 -7 -10 -1 -18 27 -32 53
-28 216 -136 220 -146 2 -5 8 -9 14 -9 14 0 168 -160 168 -176 0 -7 4 -14 9
-16 12 -4 30 -88 35 -158 1 -14 5 -31 9 -37 5 -7 4 -13 0 -13 -5 0 -9 -9 -9
-20 0 -11 4 -20 9 -20 4 0 5 -6 0 -12 -12 -21 -12 -38 0 -38 8 0 7 -3 -1 -9
-8 -4 -13 -11 -12 -15 6 -19 -13 -96 -23 -96 -7 0 -6 -4 3 -10 8 -5 10 -10 4
-10 -6 0 -11 -7 -12 -15 -1 -8 -3 -22 -4 -30 -1 -8 -5 -15 -10 -15 -4 0 -8 -7
-8 -14 0 -30 -106 -166 -129 -166 -6 0 -11 -4 -11 -10 0 -5 -7 -10 -15 -10 -8
0 -15 -3 -15 -8 0 -7 -58 -37 -75 -37 -5 -1 -19 -6 -30 -12 -11 -6 -36 -12
-55 -14 -19 -2 -40 -7 -47 -11 -6 -5 -14 -5 -16 0 -3 4 -26 7 -51 7 -25 -1
-46 2 -46 7 0 5 -4 7 -10 3 -12 -8 -110 25 -110 37 0 5 -4 6 -10 3 -5 -3 -10
-1 -10 5 0 6 -4 9 -9 6 -4 -3 -19 3 -31 14 -13 11 -26 20 -29 20 -11 0 -96 84
-94 91 2 4 -6 10 -16 14 -10 3 -21 13 -24 23 -8 23 -40 76 -49 80 -5 2 -8 12
-8 21 0 10 -3 21 -7 25 -5 4 -8 11 -8 14 -1 18 -27 52 -36 47 -5 -4 -9 -2 -9
3 0 6 -12 13 -27 18 -32 8 -28 7 -70 25 -18 7 -33 17 -33 21 0 4 -7 8 -15 8
-16 0 -118 99 -138 135 -72 128 -107 230 -123 350 -5 42 -24 62 -81 90 -18 9
-33 20 -33 25 0 6 -9 10 -19 10 -11 0 -21 4 -23 8 -3 7 -137 92 -212 134 -36
20 -63 39 -80 53 -6 6 -18 11 -26 13 -8 2 -17 8 -18 13 -2 5 -10 9 -18 9 -8 0
-14 3 -14 8 0 4 -10 12 -23 18 -67 34 -87 46 -87 55 0 5 -6 9 -13 9 -7 0 -36
16 -65 36 -30 20 -56 33 -59 31 -6 -7 26 -70 41 -79 6 -4 7 -8 3 -8 -4 0 1
-10 13 -22 11 -12 20 -28 20 -35 0 -7 5 -13 10 -13 6 0 10 -7 10 -15 0 -7 7
-18 16 -23 9 -5 16 -13 16 -18 1 -9 47 -85 57 -94 3 -3 7 -12 9 -20 2 -8 8
-16 13 -18 5 -2 9 -8 9 -13 0 -6 5 -15 10 -22 20 -23 59 -87 54 -87 -2 0 4
-10 16 -22 11 -12 20 -28 20 -35 0 -7 5 -13 10 -13 6 0 10 -7 10 -15 0 -9 8
-25 18 -36 11 -10 25 -32 33 -47 8 -15 31 -54 51 -87 21 -33 38 -65 38 -71 0
-6 7 -17 15 -24 17 -14 45 -67 45 -86 0 -7 6 -17 13 -21 6 -4 25 -35 42 -68
16 -33 35 -68 43 -77 8 -9 11 -22 7 -27 -3 -6 -2 -11 2 -11 12 0 47 -81 49
-115 1 -16 3 -32 4 -35 1 -3 1 -9 0 -15 -1 -5 1 -7 5 -4 3 4 21 -8 39 -27 18
-19 40 -34 50 -34 9 0 16 -4 16 -9 0 -5 11 -12 25 -15 14 -4 25 -11 25 -17 0
-6 5 -7 11 -3 6 3 14 2 18 -2 3 -5 47 -29 96 -53 50 -24 92 -47 95 -50 3 -3
11 -7 19 -9 8 -2 27 -12 43 -23 15 -11 28 -17 28 -14 0 4 7 0 15 -7 32 -29 45
-38 53 -38 23 0 242 -188 242 -207 0 -3 18 -23 40 -45 23 -21 37 -38 33 -38
-4 0 0 -5 10 -11 9 -5 17 -17 17 -24 0 -8 5 -15 11 -15 5 0 7 -4 4 -10 -3 -5
-1 -10 5 -10 6 0 8 -4 5 -10 -3 -5 -1 -10 6 -10 6 0 9 -8 6 -20 -3 -10 -1 -18
3 -17 4 1 9 -2 10 -8 1 -5 7 -19 13 -30 6 -11 12 -31 13 -45 2 -14 6 -36 10
-50 4 -14 8 -44 9 -68 1 -23 5 -46 9 -49 3 -3 1 -12 -5 -20 -9 -10 -8 -13 0
-13 7 0 10 -4 6 -9 -4 -8 -15 -92 -18 -153 -1 -10 -4 -18 -7 -18 -4 0 -7 -6
-8 -12 -1 -26 -12 -62 -19 -67 -8 -6 -14 -33 -14 -66 -1 -78 7 -161 16 -167 7
-5 7 -8 -1 -8 -11 0 -11 -51 0 -69 4 -5 2 -12 -2 -15 -10 -6 -9 -36 2 -54 4
-6 3 -12 -1 -12 -8 0 -11 -23 -13 -97 0 -12 -5 -25 -10 -28 -23 -14 -9 -31 25
-31 19 1 35 4 35 8 0 3 8 5 18 4 9 -2 20 2 24 8 5 8 8 7 8 -2 0 -8 5 -10 13
-5 6 4 46 8 88 9 42 1 81 4 86 7 6 4 13 3 17 0 4 -4 26 -8 49 -10 88 -5 136
-11 149 -19 7 -5 18 -9 23 -9 21 -1 91 -28 115 -45 14 -10 30 -19 35 -19 11
-2 92 -68 109 -89 6 -7 17 -19 24 -27 7 -8 10 -15 5 -15 -4 0 0 -5 10 -11 9
-6 15 -14 12 -20 -4 -5 0 -11 7 -14 8 -3 15 -15 15 -28 1 -12 7 -23 12 -25 5
-2 7 -10 4 -18 -3 -8 0 -14 6 -14 6 0 8 -6 5 -13 -7 -20 32 -56 56 -50 11 3
20 0 20 -6 0 -6 3 -10 8 -9 10 4 71 -22 115 -49 20 -13 37 -21 37 -18 0 5 97
-92 122 -123 9 -11 14 -23 11 -26 -4 -3 -1 -6 5 -6 7 0 11 -3 10 -7 -3 -14 16
-48 39 -71 13 -13 23 -20 23 -17 0 3 18 -6 40 -20 22 -14 46 -25 55 -25 8 0
15 -4 15 -10 0 -5 8 -10 18 -10 10 0 22 -3 26 -7 4 -5 11 -8 14 -9 4 0 20 -6
35 -12 16 -7 34 -12 40 -12 7 0 18 -9 25 -20 7 -11 8 -20 3 -20 -9 0 -56 -137
-53 -152 1 -5 -2 -8 -8 -8 -6 0 -9 -3 -9 -7 4 -19 -15 -73 -24 -73 -6 0 -8 -3
-4 -6 3 -4 0 -22 -8 -40 -8 -19 -11 -34 -7 -34 3 0 1 -5 -6 -12 -7 -7 -12 -20
-12 -31 0 -10 -4 -16 -8 -13 -5 3 -8 -5 -7 -17 1 -12 -2 -29 -6 -37 -12 -24
-22 -54 -21 -62 1 -5 -3 -8 -9 -8 -5 0 -8 -4 -5 -8 3 -5 -1 -20 -9 -35 -8 -15
-12 -27 -9 -27 3 0 0 -9 -6 -21 -6 -11 -13 -28 -15 -37 -7 -39 -10 -47 -18
-53 -5 -3 -10 -15 -12 -25 -2 -10 -4 -19 -5 -19 -1 0 -3 -10 -6 -23 -2 -13
-11 -36 -19 -51 -8 -16 -11 -31 -8 -35 4 -3 1 -6 -6 -6 -8 0 -11 -8 -8 -20 3
-11 1 -20 -5 -20 -5 0 -7 -4 -4 -9 3 -5 -1 -14 -9 -21 -8 -6 -17 -31 -21 -56
-3 -25 -10 -41 -16 -38 -6 4 -8 -2 -3 -15 4 -12 2 -21 -4 -21 -6 0 -11 -9 -11
-19 0 -11 -5 -23 -10 -26 -6 -4 -8 -10 -5 -14 2 -5 -2 -16 -9 -27 -8 -10 -12
-24 -9 -31 3 -7 0 -13 -7 -13 -7 0 -10 -6 -7 -14 3 -7 -3 -28 -14 -45 -10 -17
-19 -40 -19 -51 0 -10 -5 -22 -10 -25 -6 -4 -8 -11 -5 -16 4 -5 1 -9 -5 -9 -7
0 -9 -7 -6 -15 3 -9 -1 -18 -10 -22 -13 -5 -13 -7 -2 -14 10 -7 10 -9 1 -9 -7
0 -13 -8 -13 -18 0 -10 -7 -28 -16 -40 -8 -12 -12 -27 -9 -32 3 -6 1 -10 -5
-10 -6 0 -9 -4 -5 -9 3 -5 1 -12 -5 -16 -6 -4 -8 -11 -5 -16 4 -5 1 -9 -5 -9
-7 0 -10 -7 -6 -15 3 -8 1 -15 -5 -15 -6 0 -7 -4 -4 -10 3 -5 1 -10 -4 -10 -6
0 -10 -3 -9 -7 1 -5 -4 -24 -11 -43 -8 -19 -15 -37 -16 -40 -1 -3 -7 -18 -13
-33 -7 -16 -12 -30 -12 -33 0 -2 -8 -23 -19 -47 -40 -90 -84 -203 -84 -214 0
-7 -4 -13 -8 -13 -4 0 -13 -20 -20 -45 -7 -25 -17 -45 -22 -45 -4 0 -6 -4 -2
-9 3 -5 1 -12 -5 -16 -6 -4 -8 -11 -5 -16 4 -5 -1 -12 -9 -15 -9 -3 -14 -10
-11 -14 2 -4 -7 -32 -22 -61 -15 -30 -26 -60 -24 -66 1 -7 -3 -13 -10 -13 -6
0 -8 -7 -5 -16 3 -8 2 -12 -4 -9 -6 3 -10 -3 -10 -14 0 -11 -5 -23 -10 -26 -6
-4 -8 -11 -5 -16 4 -5 1 -9 -4 -9 -6 0 -10 -3 -9 -7 3 -12 -14 -57 -24 -64 -5
-3 -10 -16 -11 -27 -1 -12 -5 -22 -9 -22 -4 0 -8 -7 -8 -15 0 -8 -4 -15 -10
-15 -5 0 -9 -3 -8 -8 3 -15 -15 -62 -24 -62 -5 0 -7 -4 -3 -9 3 -5 1 -12 -5
-16 -5 -3 -10 -15 -10 -26 0 -10 -4 -19 -10 -19 -5 0 -10 -9 -10 -20 0 -11 -5
-20 -11 -20 -5 0 -8 -4 -5 -9 3 -5 -1 -14 -9 -21 -7 -6 -11 -18 -8 -26 3 -8 0
-14 -6 -14 -6 0 -11 -6 -11 -14 0 -8 -6 -21 -12 -28 -7 -7 -14 -20 -16 -28 -3
-13 -42 -96 -61 -130 -10 -18 -28 -62 -29 -73 -1 -4 -8 -15 -17 -23 -8 -9 -13
-20 -10 -25 4 -5 1 -9 -4 -9 -6 0 -11 -7 -11 -15 0 -8 -4 -15 -10 -15 -5 0 -9
-3 -8 -7 4 -12 -26 -73 -35 -73 -5 0 -6 -4 -2 -9 3 -5 -2 -17 -11 -25 -8 -9
-12 -16 -8 -16 3 0 1 -7 -6 -15 -7 -8 -9 -15 -6 -15 4 0 -2 -10 -13 -22 -11
-11 -18 -25 -15 -30 3 -4 0 -8 -5 -8 -6 0 -11 -9 -11 -20 0 -11 -3 -20 -7 -20
-5 0 -19 -25 -33 -55 -14 -30 -28 -55 -31 -55 -6 0 -16 -27 -18 -46 0 -2 -7
-12 -16 -20 -8 -9 -15 -21 -15 -28 0 -8 -7 -19 -15 -26 -8 -7 -12 -16 -9 -21
3 -5 0 -9 -5 -9 -6 0 -11 -7 -11 -15 0 -9 -7 -18 -15 -21 -8 -4 -12 -10 -9
-15 3 -5 -9 -29 -26 -54 -17 -25 -28 -45 -25 -45 4 0 -1 -7 -9 -16 -9 -8 -14
-19 -11 -24 3 -4 -2 -11 -11 -14 -8 -3 -12 -10 -9 -16 3 -5 1 -10 -5 -10 -6 0
-9 -4 -6 -9 4 -5 3 -11 -2 -13 -10 -4 -72 -105 -72 -118 0 -6 -4 -10 -8 -10
-5 0 -14 -16 -22 -35 -8 -19 -17 -35 -21 -35 -3 0 -12 -13 -19 -30 -7 -16 -16
-30 -20 -30 -6 0 -15 -20 -20 -50 -1 -3 -8 -9 -16 -13 -8 -4 -14 -15 -14 -22
0 -8 -4 -15 -10 -15 -5 0 -10 -5 -10 -10 0 -12 -72 -124 -82 -128 -5 -2 -8 -8
-8 -13 0 -10 -48 -87 -67 -107 -7 -7 -13 -17 -13 -22 0 -5 -6 -15 -12 -22 -21
-22 -54 -71 -61 -90 -3 -10 -11 -18 -17 -18 -6 0 -8 -4 -5 -10 3 -5 2 -10 -2
-10 -5 0 -17 -16 -27 -35 -10 -19 -23 -32 -29 -28 -6 3 -7 1 -3 -5 4 -7 -3
-23 -16 -36 -13 -13 -24 -30 -26 -37 -2 -8 -14 -26 -28 -40 -13 -14 -21 -28
-17 -32 3 -4 2 -7 -4 -7 -6 0 -23 -19 -39 -42 -16 -24 -31 -45 -34 -48 -19
-18 -70 -90 -70 -99 0 -6 -4 -11 -9 -11 -4 0 -21 -19 -37 -43 -16 -23 -39 -52
-51 -63 -12 -12 -19 -25 -16 -28 4 -3 1 -6 -5 -6 -7 0 -12 -4 -12 -9 0 -8 -32
-50 -70 -90 -8 -9 -26 -32 -40 -51 -14 -19 -38 -49 -55 -65 -16 -17 -31 -34
-32 -39 -1 -6 -75 -94 -110 -132 -7 -7 -13 -18 -13 -24 0 -6 -4 -8 -10 -5 -5
3 -10 2 -10 -3 0 -9 -35 -50 -111 -129 -22 -24 -39 -43 -36 -43 2 0 -29 -34
-70 -75 -40 -41 -72 -75 -70 -75 2 0 -43 -47 -100 -105 -57 -58 -108 -105
-115 -105 -6 0 -9 -3 -5 -6 3 -4 -11 -21 -31 -40 -20 -18 -41 -38 -47 -44 -5
-6 -21 -21 -34 -33 -13 -12 -41 -39 -62 -59 -21 -21 -43 -38 -49 -38 -5 0 -10
-6 -10 -14 0 -8 -4 -16 -9 -18 -11 -4 -121 -99 -168 -145 -18 -18 -33 -30 -33
-28 0 2 -15 -10 -32 -27 -18 -16 -51 -42 -73 -56 -42 -29 -77 -56 -107 -85
-10 -9 -20 -17 -23 -17 -3 0 -14 -8 -24 -18 -11 -9 -26 -22 -33 -27 -75 -58
-154 -121 -156 -127 -2 -5 -8 -8 -12 -8 -8 0 -155 -106 -202 -144 -9 -8 -19
-12 -22 -9 -3 3 -8 -2 -12 -11 -3 -9 -12 -16 -20 -16 -8 0 -14 -4 -14 -10 0
-5 -5 -10 -10 -10 -6 0 -29 -14 -52 -31 -29 -20 -44 -26 -47 -18 -2 7 1 15 7
17 7 2 12 8 12 14 0 5 9 23 21 39 11 16 18 29 15 29 -3 0 6 16 19 36 14 20 25
43 25 50 0 8 4 14 9 14 5 0 15 16 22 35 7 19 17 35 21 35 4 0 8 6 8 14 0 7 9
25 20 39 11 14 20 32 20 41 0 9 5 16 10 16 6 0 10 6 10 14 0 7 7 19 15 26 8 7
13 16 10 20 -3 4 5 19 16 34 11 14 17 26 12 26 -4 0 -1 6 7 13 16 12 130 213
130 229 0 4 4 8 10 8 5 0 9 3 8 8 -1 8 13 45 21 52 4 3 15 23 26 45 11 22 25
43 30 47 6 4 6 8 2 8 -5 0 1 13 12 29 12 16 21 32 21 36 0 4 9 19 20 35 11 15
17 30 13 34 -3 3 -1 6 6 6 7 0 9 5 6 10 -3 6 -1 10 5 10 7 0 9 7 6 16 -3 8 -2
13 3 10 7 -5 34 37 35 57 1 4 7 11 14 16 8 5 14 11 14 14 -1 15 23 67 30 67 4
0 8 9 8 20 0 11 5 20 10 20 6 0 10 6 10 14 0 8 7 22 16 30 8 9 13 16 10 16 -3
0 3 15 13 34 11 18 25 44 33 57 7 13 18 27 23 31 6 4 6 8 1 8 -5 0 -1 9 9 20
10 11 15 20 12 20 -4 0 6 21 21 47 15 27 39 70 52 98 14 27 31 56 38 63 6 7
12 22 12 33 0 10 3 19 8 19 4 0 16 20 27 45 11 25 24 45 28 45 5 0 6 4 2 9 -3
6 2 14 11 19 9 5 16 13 15 18 0 13 42 98 54 106 5 4 6 8 1 8 -5 0 -2 8 6 18 8
9 32 53 54 97 21 44 43 83 49 87 5 4 7 8 2 8 -4 0 3 17 16 38 13 20 29 52 36
70 8 17 17 32 22 32 5 0 9 6 9 14 0 16 41 98 53 107 5 3 9 12 10 20 2 8 6 20
10 26 29 47 114 223 109 227 -3 3 0 6 6 6 6 0 16 16 23 35 7 19 16 35 21 35 4
0 4 7 1 17 -4 11 -3 14 5 9 11 -6 17 5 13 27 0 4 3 7 9 7 5 0 7 7 4 15 -4 8
-1 15 4 15 6 0 16 16 23 35 7 19 17 35 22 35 4 0 5 5 2 10 -3 6 -1 10 4 10 6
0 11 3 10 8 -2 15 14 52 23 52 5 0 7 4 3 9 -3 5 1 15 8 23 11 11 28 42 31 58
1 3 13 30 28 60 14 30 25 58 25 61 -1 3 6 13 16 23 9 10 15 22 12 27 -4 5 -1
9 4 9 6 0 11 7 11 15 0 8 5 15 11 15 5 0 8 4 5 9 -6 9 22 71 37 82 5 3 8 9 8
13 -1 3 6 23 15 44 10 20 16 40 16 45 -1 4 3 7 9 7 6 0 9 7 5 15 -3 8 -1 15 5
15 6 0 7 5 4 10 -3 5 -2 10 3 10 8 0 38 59 41 83 0 4 10 23 21 44 10 20 17 40
15 44 -3 4 2 10 11 13 9 4 14 9 11 13 -4 3 -1 15 5 27 6 11 13 39 14 61 1 22
3 40 5 40 4 0 5 181 1 189 -3 5 -6 25 -8 45 -1 20 -5 50 -8 66 -3 17 -9 49
-12 72 -4 24 -10 43 -13 43 -4 0 -8 17 -9 37 -2 21 -6 40 -10 43 -4 3 -8 11
-10 18 -1 7 -4 20 -6 30 -1 9 -5 24 -8 32 -9 24 -29 94 -32 110 -2 8 -8 26
-13 40 -6 14 -9 28 -6 33 2 4 0 7 -6 7 -6 0 -8 7 -5 15 4 8 1 15 -6 15 -6 0
-9 4 -6 9 3 5 -1 28 -10 52 -9 24 -17 53 -19 64 -1 11 -10 47 -20 80 -9 33
-18 69 -20 80 -2 11 -4 22 -5 25 -1 3 -2 9 -1 14 1 4 -4 14 -10 22 -6 8 -9 14
-6 14 3 0 1 17 -5 38 -11 44 -18 88 -20 120 -1 12 -6 22 -10 22 -4 0 -6 14 -4
30 2 17 0 30 -4 30 -3 0 -6 10 -5 23 1 12 -2 36 -6 52 -5 17 -10 56 -11 87 -2
32 -6 58 -9 58 -3 0 -5 15 -5 33 1 17 -3 35 -8 39 -7 5 -7 8 2 8 9 0 10 6 4
18 -4 9 -8 36 -7 59 0 24 -4 43 -10 43 -5 0 -3 5 5 10 8 5 11 10 5 10 -6 0
-10 39 -10 98 0 53 -3 107 -7 120 -4 12 -4 22 0 22 4 0 5 36 2 80 -3 44 -3 80
0 80 3 0 6 44 7 98 4 137 4 142 12 142 4 0 7 10 6 22 -1 13 0 27 3 33 4 5 7
21 8 35 4 46 12 89 20 101 5 8 3 10 -5 4 -10 -6 -11 -3 -2 13 6 11 13 49 15
84 2 35 5 63 6 63 11 0 15 410 5 505 -11 106 -12 115 -15 115 -1 0 -4 9 -6 20
-1 11 -5 36 -9 55 -3 19 -7 41 -7 48 -1 6 -4 12 -8 12 -6 0 -10 16 -11 53 0 9
-4 17 -10 17 -5 0 -8 3 -8 8 1 4 0 10 -1 15 -1 4 -3 10 -4 15 -1 4 -12 29 -24
56 -12 27 -22 52 -22 57 0 5 -5 9 -10 9 -6 0 -9 4 -8 8 3 8 -76 136 -97 158
-5 6 -27 32 -49 58 -21 25 -42 46 -46 46 -5 0 -28 -29 -51 -65 -23 -36 -46
-65 -50 -65 -5 0 -8 -3 -8 -7 3 -17 -2 -32 -13 -45 -20 -21 -38 -56 -38 -73 0
-8 -4 -15 -8 -15 -7 0 -66 -123 -67 -140 0 -3 -3 -9 -6 -15 -16 -26 -50 -142
-50 -167 0 -10 -4 -18 -9 -18 -5 0 -7 -9 -5 -20 2 -11 0 -22 -4 -24 -4 -3 -7
-19 -6 -36 1 -16 -1 -30 -4 -30 -4 0 -7 -17 -8 -37 -1 -21 -4 -67 -6 -103 -2
-36 -1 -69 1 -74 3 -5 7 -37 8 -70 3 -61 7 -91 19 -156 4 -19 8 -45 9 -57 0
-13 4 -23 8 -23 4 0 7 -8 7 -17 1 -28 6 -57 13 -68 3 -6 9 -30 13 -55 4 -25
10 -56 12 -70 3 -14 6 -37 6 -52 0 -16 4 -28 9 -28 5 0 4 -8 -1 -18 -6 -11
-10 -27 -9 -38 0 -10 -2 -30 -5 -44 -3 -14 -8 -35 -11 -47 -2 -12 -10 -31 -16
-43 -9 -17 -14 -19 -26 -9 -8 6 -12 14 -10 16 3 3 -8 18 -24 33 -16 15 -27 30
-24 32 2 3 -7 17 -21 32 -14 15 -25 31 -25 37 0 5 -5 9 -11 9 -5 0 -8 4 -5 9
3 5 -1 11 -9 15 -8 3 -15 12 -15 21 0 8 -4 15 -8 15 -5 0 -18 18 -31 40 -12
22 -26 40 -32 40 -5 0 -9 5 -9 10 0 6 -22 44 -50 86 -27 41 -50 77 -50 80 0 2
-12 23 -27 47 -14 23 -25 42 -23 42 1 0 -8 25 -22 55 -23 49 -39 91 -44 113
-1 4 -3 9 -4 12 -1 3 -4 10 -5 15 -1 6 -3 11 -5 13 -3 4 -12 41 -17 75 -3 17
-9 32 -13 32 -5 0 -7 8 -5 18 1 9 -1 22 -5 27 -4 6 -10 30 -14 55 -4 25 -9 56
-12 70 -2 14 -6 36 -8 50 -2 14 -5 25 -6 25 -1 0 -3 16 -5 35 -2 19 -4 35 -5
35 -2 0 -4 11 -5 25 -1 14 -6 54 -10 90 -5 36 -8 82 -8 103 0 20 -3 37 -6 37
-4 0 -6 38 -6 85 0 47 -2 85 -5 85 -7 0 -3 317 5 395 3 33 8 80 10 105 5 45
10 96 20 180 3 25 7 65 9 90 2 25 5 45 6 45 1 0 3 16 4 35 1 19 4 40 7 45 4 6
5 25 4 43 -1 17 2 32 6 32 4 0 5 16 3 35 -1 19 0 35 4 35 4 0 9 17 10 38 6
115 7 132 12 132 3 0 6 15 7 33 0 17 4 52 8 77 7 44 13 100 18 170 2 20 6 40
9 45 3 6 4 31 3 58 -1 26 1 47 5 47 4 0 6 27 5 60 -1 33 1 62 4 65 7 4 5 419
-2 470 -11 80 -24 159 -27 163 -2 1 -4 7 -5 12 -1 6 -4 13 -5 18 -1 4 -3 12
-4 17 -6 37 -19 75 -25 75 -4 0 -8 6 -8 13 -1 53 -112 198 -161 210 -20 5 -26
0 -39 -31 -8 -20 -17 -45 -19 -56 -2 -12 -7 -37 -11 -56 -4 -19 -6 -38 -5 -42
1 -5 -2 -8 -6 -8 -4 0 -8 -8 -8 -17 -1 -17 -7 -47 -19 -103 -10 -44 -13 -55
-15 -55 -1 0 -3 -9 -5 -20 -2 -11 -6 -31 -10 -45 -8 -34 -16 -72 -18 -92 -1
-10 -5 -18 -9 -18 -4 0 -7 -8 -7 -17 0 -21 -8 -68 -10 -68 -2 0 -4 -10 -7 -22
-2 -13 -6 -33 -8 -45 -3 -13 -5 -23 -6 -23 -3 0 -21 -79 -25 -110 -2 -11 -4
-20 -5 -20 -1 0 -3 -7 -5 -15 -2 -8 -6 -26 -9 -40 -6 -29 -13 -60 -22 -92 -3
-13 -6 -31 -6 -40 1 -10 -2 -18 -6 -18 -7 0 -9 -8 -13 -65 -1 -14 -5 -25 -9
-25 -3 0 -7 -6 -8 -12 -1 -14 -9 -62 -16 -93 -3 -11 -5 -23 -5 -27 -1 -5 -4
-8 -9 -8 -4 0 -7 75 -7 168 1 105 -3 170 -10 174 -7 5 -7 8 0 8 12 0 13 68 2
87 -4 6 -3 14 1 17 10 6 9 106 -1 123 -4 7 -4 14 1 17 10 6 9 67 -2 84 -4 7
-4 12 1 12 4 0 8 11 8 25 0 14 -2 25 -5 25 -3 0 -5 33 -6 73 -1 39 -4 106 -7
147 -4 41 -9 102 -12 135 -3 33 -8 76 -11 95 -3 19 -7 49 -10 65 -2 17 -6 41
-9 55 -2 14 -7 41 -10 60 -7 44 -13 75 -15 75 -1 0 -4 14 -6 30 -3 17 -7 37
-11 45 -3 8 -7 22 -9 30 -6 32 -10 45 -16 55 -6 10 -20 68 -19 82 0 5 -8 17
-17 27 -11 13 -12 17 -3 11 11 -6 10 -2 -2 16 -9 13 -17 31 -17 40 0 9 -7 22
-15 29 -9 7 -13 15 -10 18 3 3 -8 29 -24 58 -17 28 -27 55 -24 58 4 3 1 6 -5
6 -7 0 -12 7 -12 15 0 8 -4 15 -10 15 -5 0 -10 7 -10 15 0 8 -4 15 -10 15 -5
0 -10 7 -10 15 0 8 -4 15 -10 15 -5 0 -10 6 -10 14 0 8 -12 24 -26 35 -15 12
-24 21 -20 21 3 0 -18 25 -48 55 -29 30 -59 55 -66 55 -6 0 -9 4 -6 9 3 5 -8
14 -24 21 -17 7 -30 15 -30 19 0 8 -95 61 -108 61 -4 0 -8 -101 -7 -225 0
-124 4 -225 9 -225 5 0 3 -7 -4 -15 -10 -12 -10 -18 -1 -29 7 -8 8 -17 3 -20
-9 -5 -9 -73 1 -82 3 -4 2 -15 -3 -25 -7 -12 -7 -20 0 -24 5 -3 10 -11 10 -16
0 -6 -4 -7 -10 -4 -6 4 -7 -2 -1 -17 4 -13 5 -32 1 -43 -4 -11 -5 -24 -2 -29
11 -19 9 -741 -2 -748 -7 -5 -7 -8 2 -8 10 0 10 -5 2 -20 -8 -14 -8 -20 0 -20
7 0 9 -8 4 -22 -4 -13 -9 -117 -10 -233 -3 -185 -10 -397 -16 -432 -1 -7 -4
-13 -8 -13 -4 0 -7 -7 -8 -15 -1 -8 -3 -22 -4 -30 -1 -8 -5 -15 -10 -15 -4 0
-8 -9 -8 -20 0 -11 -5 -20 -10 -20 -6 0 -9 -3 -9 -7 1 -5 0 -11 -1 -15 -1 -5
-3 -11 -4 -15 -2 -12 -26 -72 -47 -120 -11 -24 -19 -49 -19 -57 0 -8 -5 -18
-10 -21 -6 -4 -8 -11 -5 -16 4 -5 1 -9 -4 -9 -6 0 -10 -3 -9 -7 4 -14 -13 -53
-22 -53 -5 0 -7 -7 -4 -15 4 -8 1 -15 -7 -15 -7 0 -10 -3 -6 -6 3 -3 -5 -29
-17 -58 -51 -114 -90 -191 -99 -197 -5 -3 -8 -8 -8 -10 2 -14 -13 -49 -21 -49
-5 0 -7 -4 -4 -9 3 -5 -1 -14 -9 -21 -8 -7 -15 -16 -15 -21 0 -5 -18 -36 -40
-70 -22 -34 -40 -59 -40 -55 0 4 -15 -10 -32 -31 -18 -21 -36 -40 -39 -43 -5
-5 -5 -14 5 -100 13 -108 17 -136 31 -222 4 -18 8 -44 10 -58 9 -60 17 -107
22 -135 2 -16 5 -41 6 -55 1 -14 5 -29 8 -35 3 -5 7 -26 7 -45 1 -19 5 -46 8
-60 4 -14 8 -41 9 -60 2 -19 4 -35 5 -35 1 0 4 -18 5 -40 2 -22 4 -40 5 -40 3
0 8 -41 14 -105 2 -25 5 -45 6 -45 3 0 7 -35 14 -120 2 -22 5 -40 6 -40 2 0 7
-32 14 -110 4 -36 10 -96 21 -195 15 -132 18 -160 18 -198 1 -23 4 -42 7 -42
4 0 6 -25 6 -56 -1 -31 2 -58 6 -60 3 -2 5 -27 4 -54 -2 -28 0 -53 5 -55 7 -5
8 -31 11 -182 1 -59 -1 -64 -57 -147 -32 -47 -63 -86 -68 -86 -6 0 -7 -3 -4
-6 4 -4 -6 -21 -21 -39 -15 -18 -35 -43 -44 -56 -27 -39 -52 -70 -68 -88 -8
-9 -33 -39 -55 -66 -61 -76 -78 -96 -107 -127 -16 -16 -35 -40 -44 -53 -9 -14
-23 -25 -30 -25 -8 0 -13 -4 -12 -9 2 -4 -49 -63 -112 -131 -63 -68 -133 -142
-155 -166 -45 -48 -131 -145 -166 -187 -13 -16 -39 -44 -56 -63 -18 -19 -30
-34 -28 -34 3 0 -3 -8 -12 -18 -33 -35 -53 -62 -53 -73 0 -5 -4 -7 -10 -4 -5
3 -10 2 -10 -3 0 -7 -61 -96 -90 -129 -19 -22 1 -40 71 -64 38 -13 69 -27 69
-32 0 -4 4 -6 9 -3 5 4 22 1 38 -5 15 -6 37 -13 48 -15 41 -10 50 -13 53 -14
1 -2 7 -4 12 -5 6 -1 12 -4 15 -5 3 -1 14 -3 24 -4 11 0 23 -4 27 -8 4 -5 17
-8 29 -8 12 0 25 -3 29 -7 3 -4 17 -9 29 -11 30 -5 52 -10 52 -12 0 -2 36 -10
58 -12 9 -1 17 -6 17 -11 0 -4 4 -6 9 -2 5 3 12 1 16 -5 4 -6 11 -8 16 -4 5 3
16 0 24 -6 8 -7 15 -10 15 -6 0 3 12 1 28 -5 15 -6 36 -13 48 -15 11 -2 62
-17 112 -34 50 -16 98 -30 107 -30 8 0 15 -4 15 -10 0 -5 3 -9 8 -9 15 3 73
-14 78 -22 3 -5 10 -7 15 -4 5 4 9 1 9 -6 0 -7 3 -10 6 -6 4 3 19 0 35 -9 16
-8 30 -14 31 -13 3 1 24 -7 108 -43 14 -6 28 -11 33 -10 4 1 7 -3 7 -8 0 -5 3
-9 8 -8 9 3 163 -73 180 -89 7 -7 18 -13 23 -13 5 0 26 -11 47 -24 20 -12 41
-23 46 -24 5 0 12 -4 15 -9 3 -5 22 -20 41 -33 19 -13 38 -29 42 -35 4 -5 8
-7 8 -2 0 4 8 -1 18 -10 11 -10 38 -33 61 -52 46 -37 151 -137 151 -145 0 -2
14 -19 31 -37 38 -41 129 -174 129 -189 0 -5 4 -10 9 -10 8 0 17 -21 26 -58 2
-8 10 -21 19 -30 8 -10 15 -20 16 -24 1 -13 11 -43 19 -58 4 -8 14 -40 22 -70
7 -30 18 -58 24 -62 5 -4 7 -8 4 -8 -4 0 -2 -21 3 -47 11 -53 18 -105 23 -173
2 -25 4 -47 5 -50 6 -13 4 -36 -3 -47 -4 -6 -3 -14 3 -18 8 -5 8 -11 -1 -21
-7 -9 -8 -14 -1 -14 11 0 11 -18 -1 -37 -4 -6 -3 -14 3 -18 6 -3 7 -14 2 -23
-4 -9 -8 -38 -7 -64 0 -27 -2 -48 -5 -48 -3 0 -6 -19 -7 -43 -2 -45 -11 -107
-27 -177 -3 -14 -8 -34 -10 -45 -2 -11 -9 -40 -15 -65 -7 -25 -14 -56 -17 -69
-3 -13 -9 -32 -15 -43 -5 -10 -7 -18 -3 -18 3 0 1 -7 -6 -15 -7 -8 -10 -15 -6
-15 3 0 -6 -30 -20 -67 -13 -38 -27 -79 -30 -92 -3 -13 -13 -41 -24 -63 -10
-21 -22 -52 -25 -68 -4 -17 -10 -30 -14 -30 -4 0 -8 -6 -8 -12 0 -7 -11 -35
-23 -63 -13 -27 -24 -52 -25 -55 -7 -30 -18 -50 -26 -50 -5 0 -8 -3 -8 -8 1
-7 0 -11 -6 -29 -2 -5 -6 -18 -10 -30 -4 -13 -12 -23 -17 -23 -5 0 -6 -4 -3
-10 3 -5 1 -10 -5 -10 -6 0 -8 -4 -5 -10 3 -5 1 -10 -6 -10 -7 0 -9 -3 -6 -6
3 -4 1 -16 -5 -28 -7 -11 -11 -24 -10 -28 1 -5 -3 -8 -8 -8 -6 0 -10 -7 -10
-15 0 -8 -4 -15 -10 -15 -5 0 -10 -3 -9 -7 2 -16 -14 -53 -22 -53 -5 0 -9 -8
-9 -19 0 -10 -7 -24 -15 -31 -8 -7 -15 -18 -15 -25 0 -6 -9 -22 -20 -35 -11
-12 -17 -27 -14 -31 3 -5 0 -9 -6 -9 -6 0 -9 -4 -5 -9 3 -6 -3 -14 -12 -20
-10 -6 -14 -11 -10 -11 5 0 0 -12 -11 -27 -11 -16 -23 -38 -26 -50 -4 -13 -12
-23 -17 -23 -6 0 -7 -4 -4 -10 3 -5 2 -10 -3 -10 -5 0 -15 -12 -23 -27 -26
-52 -112 -188 -120 -191 -5 -2 -7 -8 -3 -13 3 -5 -2 -12 -10 -15 -9 -3 -13
-10 -10 -15 3 -5 0 -9 -6 -9 -6 0 -8 -4 -5 -10 3 -5 1 -10 -5 -10 -6 0 -8 -4
-5 -10 3 -5 2 -10 -4 -10 -6 0 -20 -18 -31 -40 -11 -22 -25 -40 -31 -40 -6 0
-7 -4 -4 -10 3 -5 1 -10 -4 -10 -6 0 -11 -6 -11 -13 0 -7 -8 -22 -18 -33 -9
-10 -31 -40 -47 -66 -17 -27 -34 -48 -38 -48 -5 0 -5 -5 -2 -10 3 -6 -1 -13
-9 -16 -9 -3 -16 -10 -16 -15 0 -10 -11 -26 -47 -65 -12 -13 -24 -33 -28 -44
-4 -12 -9 -19 -12 -16 -5 4 -50 -57 -98 -133 -5 -9 -21 -28 -34 -43 -12 -14
-22 -29 -21 -33 1 -4 -7 -14 -17 -23 -11 -9 -34 -38 -53 -64 -18 -27 -37 -48
-42 -48 -4 0 -8 -6 -8 -12 0 -7 -11 -26 -25 -43 -31 -37 -33 -40 -75 -95 -19
-24 -40 -50 -47 -58 -32 -34 -78 -106 -79 -123 -1 -11 -3 -20 -4 -21 -1 -2 -3
-14 -5 -28 -7 -57 -22 -145 -25 -145 -2 0 -4 -11 -19 -100 -11 -63 -14 -76
-32 -165 -6 -30 -12 -65 -12 -77 -1 -13 -4 -23 -7 -23 -3 0 -6 -8 -6 -17 -1
-10 -4 -36 -9 -58 -4 -22 -9 -49 -10 -60 -2 -11 -4 -20 -5 -20 -2 0 -6 -24
-14 -75 -2 -14 -5 -25 -6 -25 -2 0 -10 -36 -25 -120 -4 -22 -10 -44 -13 -50
-3 -5 -7 -21 -8 -35 -2 -22 -7 -45 -18 -85 -6 -23 -20 -111 -18 -117 1 -5 -3
-8 -8 -8 -6 0 -10 -13 -10 -30 0 -16 -3 -30 -7 -30 -5 0 -8 -15 -7 -32 0 -18
-3 -38 -7 -43 -4 -6 -10 -22 -12 -35 -3 -14 -15 -61 -27 -105 -12 -44 -22 -86
-23 -92 0 -7 -3 -13 -7 -13 -4 0 -7 -6 -8 -12 -3 -32 -10 -65 -20 -88 -19 -44
-25 -65 -24 -72 1 -5 -3 -8 -8 -8 -5 0 -9 -3 -8 -7 1 -5 -3 -18 -10 -30 -7
-13 -10 -23 -6 -23 4 0 -3 -11 -16 -25 -13 -14 -22 -27 -19 -29 10 -10 210
-106 219 -106 6 0 40 29 76 64 35 35 64 62 64 60 0 -3 24 19 54 48 30 29 96
91 147 138 50 47 108 101 129 120 20 19 90 85 155 145 65 61 137 128 160 150
152 145 201 190 206 188 3 -1 12 9 19 22 7 14 16 25 20 25 3 0 46 38 96 85 49
47 93 85 97 85 5 0 5 5 2 10 -3 6 -2 10 4 10 5 0 27 17 48 37 21 21 53 50 71
66 19 15 30 27 26 27 -3 0 6 10 22 22 26 21 85 76 245 231 28 26 54 47 59 47
6 0 10 6 10 14 0 8 4 16 10 18 9 3 168 151 331 308 43 41 132 127 199 190 67
63 169 160 226 216 57 55 104 100 104 99 0 -1 59 55 130 125 72 69 133 124
135 121 3 -2 5 4 5 14 0 10 3 16 6 12 3 -3 16 5 29 19 12 13 26 24 30 24 4 0
27 20 51 45 23 25 48 45 55 45 7 0 10 3 7 6 -5 4 37 54 46 54 1 0 82 78 179
173 98 95 177 172 177 171 0 -1 68 65 152 147 83 82 156 149 161 149 6 0 8 3
5 6 -8 7 23 38 52 54 11 6 18 15 15 21 -4 5 -2 9 3 9 5 0 19 9 32 20 13 11 20
20 16 20 -4 0 7 12 25 28 19 15 183 176 366 358 183 182 335 328 338 326 3 -3
5 -1 5 4 0 6 121 132 269 281 148 150 266 274 263 277 -3 4 0 6 6 6 6 0 22 12
37 28 14 15 65 68 113 117 48 50 86 93 84 98 -1 4 4 7 11 7 8 0 20 11 27 25 7
14 15 23 17 21 3 -2 21 14 41 37 20 22 57 62 82 87 25 26 83 88 130 139 47 51
101 110 120 130 19 21 67 73 105 116 39 43 79 88 90 101 11 12 36 41 55 64 19
22 52 59 72 81 20 21 34 39 31 39 -2 0 9 15 26 33 17 17 38 39 46 48 8 9 15
20 15 25 0 5 9 16 19 24 11 7 18 17 15 22 -3 4 2 8 11 8 9 0 13 5 10 10 -3 6
1 13 9 16 9 3 16 11 16 16 0 6 18 32 40 58 22 26 37 50 33 54 -3 3 -1 6 6 6 7
0 10 3 8 8 -5 8 13 26 28 29 6 1 10 -9 10 -22 0 -13 -4 -20 -10 -17 -5 3 -2
-3 7 -14 14 -16 15 -23 6 -32 -7 -7 -8 -12 -2 -12 6 0 11 -7 11 -15 0 -8 -5
-15 -11 -15 -7 0 -7 -3 -1 -8 12 -8 13 -14 19 -86 2 -31 7 -60 11 -66 3 -5 0
-10 -7 -10 -10 0 -10 -2 1 -9 8 -5 12 -18 8 -29 -2 -12 0 -23 7 -26 7 -3 7 -5
-2 -5 -7 -1 -10 -5 -7 -11 3 -5 8 -29 10 -52 2 -24 4 -43 5 -43 3 0 9 -58 11
-107 1 -27 6 -48 12 -48 6 0 6 -5 0 -12 -8 -11 -10 -33 -3 -40 2 -3 6 -49 13
-133 2 -28 7 -57 12 -64 6 -10 4 -12 -5 -6 -9 6 -11 4 -4 -6 4 -8 10 -45 12
-84 2 -38 8 -75 14 -82 7 -9 7 -13 -1 -13 -8 0 -10 -8 -5 -22 3 -12 7 -40 8
-62 1 -23 6 -47 10 -55 6 -10 5 -12 -2 -7 -7 4 -12 3 -12 -3 0 -5 3 -12 8 -14
4 -3 7 -25 6 -49 0 -23 4 -46 10 -50 7 -5 7 -8 -2 -8 -8 0 -10 -5 -5 -12 4 -7
9 -38 10 -68 6 -130 10 -177 16 -187 4 -7 3 -14 -3 -18 -6 -4 -8 -11 -4 -16 7
-11 16 -116 18 -207 0 -34 3 -62 7 -62 7 0 5 -32 -4 -46 -3 -6 -3 -14 1 -18 4
-4 8 -28 9 -54 2 -26 4 -69 6 -97 1 -27 6 -56 11 -64 6 -9 5 -12 -2 -7 -7 4
-10 -1 -9 -14 1 -11 4 -20 7 -20 3 0 6 -9 7 -20 1 -11 -3 -20 -8 -20 -6 0 -7
-6 -2 -12 12 -20 13 -41 2 -54 -7 -8 -6 -14 1 -19 5 -3 10 -18 10 -33 -1 -91
5 -202 12 -202 4 0 3 -11 -2 -25 -5 -13 -6 -27 -1 -29 9 -6 8 -46 -2 -62 -3
-6 -4 -14 0 -18 4 -3 7 -27 8 -51 2 -25 5 -48 8 -52 4 -3 2 -13 -3 -23 -5 -10
-6 -20 -3 -24 4 -3 7 -52 8 -109 1 -56 3 -102 4 -102 2 0 4 -24 5 -53 0 -28
-3 -52 -7 -52 -5 0 -5 -6 0 -12 11 -19 12 -68 0 -68 -6 0 -6 -5 0 -12 5 -7 9
-49 8 -93 -1 -44 0 -84 3 -89 10 -18 7 -466 -3 -466 -7 0 -7 -3 0 -8 7 -4 10
-259 10 -727 0 -468 -3 -723 -10 -727 -6 -5 -5 -8 4 -8 9 0 10 -4 4 -12 -5 -7
-9 -66 -9 -130 1 -73 -3 -118 -9 -118 -6 0 -6 -3 0 -8 12 -8 13 -111 1 -130
-4 -7 -2 -12 6 -12 9 0 9 -3 2 -8 -6 -4 -11 -67 -12 -167 -2 -224 -7 -329 -15
-342 -4 -7 -4 -14 1 -16 6 -5 8 -112 2 -127 -6 -14 -4 -36 4 -47 5 -8 4 -13
-2 -13 -12 0 -11 -18 2 -39 6 -9 5 -12 -1 -8 -6 4 -9 -37 -9 -106 1 -62 -2
-129 -5 -149 -4 -21 -2 -38 3 -38 5 0 6 -6 1 -12 -4 -7 -8 -47 -8 -88 0 -41
-4 -81 -8 -87 -5 -7 -4 -13 0 -13 13 0 14 -38 1 -46 -7 -4 -7 -9 1 -13 7 -5 8
-17 2 -39 -6 -21 -6 -32 0 -32 6 0 7 -6 3 -12 -5 -7 -9 -48 -9 -90 l-2 -78
1734 0 c1213 0 1733 3 1733 11 0 5 4 8 9 5 5 -3 11 0 14 8 3 7 26 23 51 36 47
22 79 61 58 68 -6 2 -9 9 -6 17 3 7 0 16 -5 20 -6 3 -9 11 -6 16 4 5 1 9 -5 9
-7 0 -10 6 -7 14 3 7 1 18 -3 22 -5 5 -10 24 -12 42 -1 17 -6 32 -11 32 -5 0
-4 6 2 14 7 8 8 17 3 20 -10 6 -9 42 1 52 3 4 2 15 -3 25 -7 12 -7 20 0 24 6
4 7 12 3 18 -12 19 -11 117 1 110 7 -5 7 -2 0 8 -15 19 -16 82 -2 73 7 -5 8
-2 2 7 -12 19 -11 202 1 211 6 5 6 8 -1 8 -11 0 -12 35 -1 46 3 4 2 14 -3 24
-10 18 -9 38 3 58 5 6 4 12 -2 12 -10 0 -10 18 2 37 4 6 3 14 -2 17 -11 7 -9
25 4 45 5 9 5 16 -1 18 -11 4 -10 55 1 72 3 6 2 11 -3 11 -6 0 -7 14 -2 35 4
20 4 38 -1 41 -5 3 -5 13 1 25 8 14 7 19 -1 19 -8 0 -8 4 1 15 7 9 8 15 2 15
-6 0 -7 13 -2 35 5 21 4 35 -2 35 -5 0 -6 5 -3 11 12 18 12 68 1 73 -8 3 -8 7
-1 13 6 4 9 19 7 33 -3 29 -3 64 2 103 2 15 -1 27 -6 27 -5 0 -6 4 -3 10 10
16 12 80 3 80 -5 0 -6 5 -3 11 10 16 12 69 3 69 -4 0 -4 10 1 23 5 12 5 31 1
42 -4 11 -5 23 -3 28 10 18 12 56 3 62 -6 4 -7 13 -1 24 6 10 6 23 1 31 -5 8
-6 19 -2 24 11 18 10 96 -1 89 -6 -4 -7 -1 -1 8 13 21 13 62 0 78 -8 11 -8 13
2 7 14 -8 12 19 -2 43 -6 9 -5 12 1 8 14 -9 14 93 1 110 -5 7 -5 14 1 18 7 3
10 48 10 109 -1 57 1 108 5 114 3 6 0 13 -6 15 -10 4 -10 6 -1 6 7 1 10 7 8
14 -8 21 -13 77 -6 77 3 0 6 14 6 30 0 17 -4 30 -8 30 -5 0 -5 5 -1 12 9 15
10 58 2 80 -4 9 -4 19 -1 22 8 8 6 203 -2 216 -3 5 -2 10 4 10 9 0 7 37 -4 68
-2 6 -1 12 3 12 11 0 8 124 -3 132 -7 5 -7 8 0 8 7 0 10 48 9 130 0 87 3 130
10 130 8 0 8 3 0 8 -14 9 -13 104 1 114 6 5 5 8 -4 8 -11 0 -11 3 -1 15 7 8 8
15 3 15 -5 0 -9 9 -10 20 -1 11 2 18 7 15 5 -3 5 8 0 25 -5 16 -5 32 -1 35 5
2 6 16 3 30 -2 14 0 25 4 25 5 0 9 18 8 40 0 22 3 40 8 40 4 0 7 3 6 8 -1 4 2
27 7 52 5 25 8 51 6 58 -1 6 2 12 7 12 5 0 8 14 7 30 -1 17 1 30 5 30 6 0 36
129 32 142 -1 5 2 8 6 8 4 0 9 8 10 18 1 9 3 24 6 32 2 8 7 30 11 48 4 17 12
32 17 32 5 0 7 4 4 9 -4 5 -1 22 5 38 6 15 13 36 15 45 2 10 6 26 8 35 2 10
10 32 17 48 7 17 13 33 14 38 2 4 4 9 5 12 1 3 3 9 4 14 0 5 4 13 9 17 4 4 7
18 7 31 0 13 5 23 11 23 5 0 8 4 5 8 -3 5 2 21 10 36 8 16 16 40 19 54 2 14
10 29 17 34 7 4 9 8 4 8 -5 0 -3 7 4 15 7 8 9 15 5 15 -4 0 -3 6 3 13 6 6 10
14 11 17 0 3 8 23 17 45 18 41 24 61 26 82 1 7 5 10 9 7 4 -2 13 13 20 33 6
21 18 47 26 59 7 11 10 24 6 27 -3 4 -1 7 5 7 7 0 12 6 12 13 0 6 16 44 36 82
20 39 57 111 82 160 25 50 49 92 54 93 4 2 8 12 8 23 0 10 5 19 11 19 6 0 8 7
5 16 -3 8 -2 12 4 9 6 -3 10 1 10 9 0 8 6 21 13 28 21 23 47 75 40 82 -3 3 1
6 11 6 9 0 15 4 12 9 -3 5 3 20 14 33 11 14 17 28 14 31 -3 3 4 10 15 16 11 6
18 17 15 25 -3 7 2 16 11 20 9 3 14 10 11 15 -3 4 6 21 19 37 14 16 25 35 25
42 0 6 5 12 11 12 5 0 7 5 4 10 -3 6 -1 10 4 10 6 0 11 5 11 11 0 6 7 17 15
26 8 8 12 19 9 25 -4 7 -2 8 4 4 11 -6 16 5 10 20 -2 3 5 10 15 15 9 6 15 14
12 19 -3 4 2 10 10 14 8 3 15 12 15 21 0 8 5 15 10 15 6 0 10 7 10 15 0 8 5
15 10 15 6 0 10 7 10 15 0 8 5 15 10 15 6 0 10 6 10 14 0 7 12 26 27 42 15 16
26 31 25 34 -1 3 4 12 11 20 7 8 26 36 42 62 16 26 34 44 40 41 5 -4 7 -3 3 2
-4 4 -3 14 3 22 6 7 9 13 5 13 -3 0 2 8 12 18 31 34 52 62 45 62 -4 0 2 7 13
15 10 8 16 15 12 15 -4 0 4 12 18 27 13 14 22 28 20 30 -2 2 5 14 15 26 55 64
69 83 69 92 0 6 9 17 20 25 11 8 20 19 20 25 0 6 9 17 20 25 11 8 20 22 20 32
0 9 9 22 21 28 11 7 19 14 16 16 -2 3 8 19 24 37 15 18 27 34 26 37 -1 4 25
36 76 91 9 10 17 23 17 28 0 5 3 11 8 13 4 2 27 30 52 63 25 33 57 74 72 90
16 17 28 33 28 36 0 4 16 24 35 45 19 22 35 45 35 52 0 7 5 10 10 7 6 -3 10
-1 10 6 0 6 8 18 18 25 9 7 17 16 17 21 1 7 10 19 72 90 13 14 20 29 17 34 -3
5 2 9 10 9 9 0 16 4 16 9 0 5 15 25 34 44 19 20 32 38 29 40 -2 3 5 11 17 17
12 6 19 14 17 17 -3 3 10 20 28 39 19 19 32 34 28 34 -3 0 4 8 15 19 12 10 22
21 22 25 0 4 14 20 30 36 17 17 27 30 23 30 -4 0 2 8 13 19 10 10 36 38 56 62
82 97 76 92 92 78 33 -30 45 -39 53 -39 5 0 15 -9 23 -19 7 -11 17 -18 22 -15
4 3 11 -2 14 -10 3 -9 10 -16 15 -16 8 0 36 -20 65 -48 8 -7 14 -10 14 -6 0 4
6 1 13 -7 6 -8 39 -35 72 -60 33 -24 62 -47 63 -52 2 -4 8 -5 13 -1 5 3 9 -2
9 -10 0 -9 6 -16 13 -16 6 0 24 -10 39 -23 14 -12 36 -30 47 -40 12 -9 25 -17
30 -17 5 0 11 -4 13 -8 2 -5 32 -30 67 -55 35 -26 60 -47 56 -47 -4 0 9 -11
29 -25 20 -14 41 -25 47 -25 6 0 8 -4 4 -9 -3 -5 4 -12 15 -16 11 -3 20 -11
20 -17 0 -6 3 -8 7 -5 3 4 12 -2 20 -13 8 -11 19 -20 24 -20 5 0 23 -14 39
-30 16 -17 32 -30 35 -30 4 0 12 -6 20 -13 7 -6 27 -23 45 -37 44 -34 69 -55
108 -88 18 -15 44 -36 57 -47 59 -49 109 -92 130 -112 13 -13 27 -23 30 -23 3
0 23 -18 45 -40 22 -22 43 -40 46 -40 3 0 23 -18 44 -40 21 -22 44 -40 50 -40
6 0 9 -4 6 -8 -3 -5 6 -15 19 -22 13 -7 22 -17 19 -22 -3 -4 1 -8 9 -8 8 0 22
-11 31 -24 22 -35 64 -75 70 -68 3 3 6 -4 6 -16 0 -11 8 -26 18 -31 9 -6 13
-11 9 -11 -4 0 1 -10 13 -22 11 -12 20 -31 20 -42 0 -12 2 -72 3 -134 1 -61
-2 -112 -6 -112 -5 0 -5 -5 -2 -10 10 -16 12 -110 2 -110 -4 0 -5 -5 -2 -10
10 -16 12 -110 2 -110 -4 0 -5 -5 -2 -10 10 -16 12 -110 2 -110 -4 0 -5 -5 -2
-10 10 -16 12 -110 2 -110 -4 0 -5 -5 -2 -10 11 -18 12 -110 0 -110 -7 0 -7
-3 0 -8 6 -4 10 -17 9 -30 -1 -12 2 -22 6 -22 5 0 24 -16 43 -35 19 -19 37
-31 41 -28 3 3 6 -1 6 -9 0 -9 11 -23 25 -32 30 -20 78 -62 108 -93 11 -13 25
-23 31 -23 6 0 22 -16 36 -34 14 -19 26 -33 28 -31 1 1 22 -16 47 -39 48 -45
89 -81 129 -111 15 -11 33 -26 41 -33 7 -6 19 -12 25 -12 6 0 8 -4 5 -10 -3
-5 0 -10 7 -10 7 0 29 -13 48 -29 19 -15 50 -36 68 -45 18 -9 36 -24 39 -31 3
-8 9 -13 13 -10 5 3 13 -2 18 -11 5 -9 13 -15 18 -15 5 1 37 -17 72 -39 35
-23 74 -46 88 -52 13 -6 24 -15 24 -20 0 -5 5 -6 10 -3 6 3 10 1 10 -4 0 -6 6
-11 14 -11 7 0 25 -9 40 -21 14 -11 26 -18 26 -15 0 3 23 -8 50 -24 28 -17 55
-30 60 -30 6 0 10 -3 10 -8 0 -4 15 -14 33 -21 17 -8 74 -41 125 -73 51 -32
97 -58 103 -58 5 0 9 -4 9 -10 0 -5 5 -10 11 -10 6 0 25 -10 42 -22 17 -12 38
-23 46 -25 8 -1 17 -6 20 -11 3 -6 25 -20 49 -32 23 -12 45 -26 48 -31 3 -5
10 -7 15 -4 5 4 9 2 9 -3 0 -5 23 -19 50 -32 28 -13 50 -27 50 -32 0 -4 7 -8
15 -8 8 0 23 -8 33 -18 10 -9 24 -18 31 -20 6 -1 30 -13 51 -27 22 -14 44 -25
49 -25 5 0 16 -6 23 -13 7 -7 30 -21 50 -30 20 -10 40 -22 43 -27 4 -6 11 -8
16 -5 5 4 9 1 9 -4 0 -6 7 -11 15 -11 8 0 15 -4 15 -10 0 -5 9 -10 19 -10 11
0 21 -3 23 -7 2 -5 28 -21 58 -37 30 -16 62 -35 70 -42 8 -7 17 -12 20 -12 13
0 60 -26 60 -34 0 -4 3 -7 8 -6 7 2 19 -4 122 -62 30 -17 73 -40 95 -51 22
-11 72 -38 110 -59 39 -22 99 -54 135 -72 36 -18 71 -39 78 -46 7 -6 20 -12
27 -12 8 0 19 -8 24 -17 6 -10 11 -14 11 -10 0 7 157 -69 170 -83 3 -3 26 -16
53 -29 26 -13 47 -28 47 -33 0 -5 4 -7 8 -4 5 3 27 -6 51 -20 24 -13 51 -24
61 -24 10 0 20 -3 22 -7 2 -5 42 -28 91 -52 48 -24 87 -49 87 -54 0 -6 3 -7 6
-4 6 5 139 -58 154 -73 3 -3 28 -16 55 -30 28 -14 52 -27 55 -30 3 -3 12 -6
20 -8 8 -2 22 -10 31 -18 9 -8 19 -11 22 -7 4 3 7 2 7 -3 0 -6 20 -18 45 -28
25 -11 45 -24 45 -29 0 -6 3 -8 6 -4 3 3 23 -4 43 -17 20 -13 46 -26 58 -30
13 -4 23 -12 23 -17 0 -5 6 -9 14 -9 8 0 32 -10 53 -23 37 -22 97 -54 210
-112 32 -16 60 -33 63 -36 3 -3 20 -11 38 -18 17 -8 32 -18 32 -24 0 -6 3 -7
6 -4 4 4 20 -3 35 -14 16 -11 29 -17 29 -12 0 4 4 3 8 -2 4 -6 21 -17 37 -26
80 -39 250 -134 253 -141 2 -4 7 -6 12 -3 5 3 14 0 22 -7 7 -7 29 -21 48 -30
19 -10 71 -38 115 -63 44 -24 96 -53 115 -62 19 -9 37 -20 40 -24 3 -3 15 -9
28 -13 12 -4 22 -12 22 -17 0 -5 6 -9 13 -9 7 0 34 -13 60 -30 26 -16 47 -27
47 -23 0 3 8 -1 18 -9 9 -8 42 -28 72 -44 30 -16 57 -32 60 -36 3 -4 15 -11
26 -15 18 -7 414 -236 502 -290 21 -13 64 -39 97 -58 80 -48 93 -55 142 -87
23 -16 46 -28 52 -28 6 0 11 -4 11 -10 0 -5 6 -10 14 -10 8 0 16 -3 18 -8 2
-4 35 -27 73 -50 39 -24 94 -59 123 -78 l52 -35 0 592 0 591 -32 42 c-33 41
-197 215 -232 245 -10 9 -26 23 -35 32 -45 45 -231 186 -239 181 -3 -2 -8 1
-11 6 -15 24 -221 128 -243 124 -5 -1 -8 3 -8 8 0 6 -9 10 -21 10 -11 0 -28 4
-38 10 -18 9 -29 12 -112 29 -54 12 -129 42 -129 53 0 5 -8 8 -18 8 -10 0 -22
4 -27 9 -6 5 -37 24 -70 42 -33 17 -67 38 -76 45 -8 8 -18 14 -22 14 -3 0 -23
11 -44 25 -21 14 -45 30 -53 35 -37 24 -196 135 -207 145 -35 30 -43 35 -43
30 0 -2 -10 4 -22 14 -48 42 -67 57 -88 71 -12 8 -31 22 -41 32 -11 9 -39 31
-61 50 -23 18 -56 45 -74 61 -17 15 -37 27 -43 27 -6 0 -11 4 -11 9 0 4 -34
36 -75 70 -41 34 -87 75 -104 91 -16 17 -31 30 -34 30 -2 0 -32 27 -66 60 -34
33 -64 60 -66 60 -4 0 -163 151 -304 288 -63 61 -120 112 -125 112 -5 0 -7 3
-3 6 3 3 -14 24 -39 45 -25 21 -43 39 -41 39 3 0 -19 24 -47 53 -28 29 -52 52
-54 51 -2 -1 -20 16 -40 39 -20 22 -68 73 -107 113 -38 40 -113 119 -165 174
-52 56 -119 126 -147 156 -29 29 -53 58 -53 64 0 6 -4 8 -10 5 -5 -3 -10 -1
-10 4 0 6 -15 26 -32 44 -18 19 -64 69 -103 112 -38 43 -84 93 -102 111 -17
17 -29 35 -26 38 4 3 -2 6 -12 6 -10 0 -16 3 -12 6 5 5 -23 38 -120 140 -18
19 -33 37 -33 40 0 2 -16 21 -36 42 -75 79 -84 89 -84 101 0 7 -4 9 -10 6 -5
-3 -10 -2 -10 3 0 5 -18 29 -40 52 -22 23 -40 45 -40 48 0 2 -10 15 -22 27
-13 12 -45 48 -73 80 -48 57 -90 103 -140 155 -23 25 -26 70 -4 70 5 0 9 5 9
11 0 6 9 24 21 40 11 16 18 29 14 29 -3 0 3 10 15 22 11 12 20 26 20 31 0 4
13 27 29 50 15 23 31 52 35 65 4 12 12 22 17 22 6 0 8 4 5 9 -4 5 -1 11 4 13
6 2 12 12 14 21 1 10 7 22 12 25 6 4 24 31 40 59 16 29 33 53 37 53 5 0 5 5 2
10 -3 6 -1 10 5 10 6 0 8 5 5 10 -3 6 -2 10 3 10 5 0 22 25 38 55 16 30 32 55
37 55 4 0 7 7 7 15 0 8 5 15 10 15 6 0 10 5 10 10 0 11 108 183 130 207 6 7 8
13 5 13 -3 0 3 10 15 22 11 12 20 28 20 35 0 7 4 13 8 13 4 0 21 22 37 50 16
27 33 50 37 50 4 0 8 6 8 13 0 7 11 25 25 40 14 15 22 27 18 27 -4 0 -3 4 2 8
6 4 30 34 55 67 86 115 154 191 193 211 15 8 25 18 23 23 -3 4 -7 18 -10 32
-3 13 -14 54 -25 92 -11 37 -17 67 -14 67 3 0 1 6 -5 12 -6 7 -11 16 -11 21
-1 4 -1 8 -2 10 0 1 -2 13 -4 27 -1 14 -8 48 -14 75 -7 28 -14 68 -17 90 -3
22 -9 42 -12 45 -4 3 -8 25 -10 50 -3 43 -9 85 -12 85 -2 0 -8 43 -13 93 -1
15 -5 32 -9 37 -3 6 -4 19 -2 29 1 11 0 24 -3 29 -3 5 -7 32 -9 60 -1 29 -5
75 -8 102 -10 94 -18 190 -19 250 -1 33 -6 66 -10 73 -5 7 -4 12 3 12 6 0 8 4
5 10 -13 21 -6 547 9 670 4 25 8 71 10 102 2 31 7 61 10 66 3 5 7 33 10 63 2
30 7 62 11 72 4 10 5 20 2 24 -4 3 0 20 7 38 8 18 10 38 6 46 -5 7 -4 22 2 32
5 11 8 30 5 43 -2 13 0 24 5 24 4 0 8 12 8 28 0 15 2 51 4 81 4 65 -9 108 -35
116 -24 8 -79 -3 -79 -16 0 -5 -6 -9 -14 -9 -17 0 -116 -95 -116 -111 0 -6 -4
-8 -9 -4 -5 3 -12 -3 -15 -13 -4 -10 -14 -27 -24 -38 -30 -33 -62 -91 -54 -99
4 -5 2 -5 -4 -2 -7 4 -19 -7 -28 -28 -9 -19 -21 -37 -26 -40 -6 -4 -8 -11 -5
-16 4 -5 1 -9 -4 -9 -6 0 -10 -3 -9 -7 1 -5 -17 -48 -40 -96 -23 -49 -39 -93
-36 -98 3 -5 1 -9 -5 -9 -6 0 -13 -16 -17 -35 -3 -19 -10 -35 -15 -35 -5 0 -8
-3 -7 -7 3 -11 -35 -167 -42 -173 -3 -3 -6 -16 -6 -30 -1 -14 -4 -41 -8 -60
-4 -19 -9 -55 -11 -80 -2 -25 -4 -47 -5 -50 -4 -13 -1 -229 4 -257 4 -18 3
-33 0 -33 -13 0 -54 51 -60 75 -3 14 -11 25 -17 25 -6 0 -7 3 -4 7 4 3 -1 15
-10 26 -13 15 -14 19 -3 13 9 -5 8 -2 -2 7 -10 8 -15 17 -11 20 3 4 1 7 -6 7
-7 0 -9 5 -6 10 3 6 -1 10 -10 10 -9 0 -14 4 -11 9 3 4 -1 16 -8 27 -8 10 -12
23 -9 30 2 6 -5 31 -16 55 -48 107 -84 195 -84 207 0 6 -4 12 -8 12 -7 0 -22
39 -20 53 1 4 -4 7 -10 7 -5 0 -8 4 -4 9 3 5 0 15 -7 23 -7 7 -15 22 -16 33
-2 11 -8 23 -14 26 -5 3 -9 9 -9 13 1 9 -9 34 -35 94 -13 29 -24 57 -24 62 0
6 -5 10 -12 10 -6 0 -8 3 -5 6 3 4 1 16 -5 28 -7 11 -13 23 -13 26 -1 12 -41
50 -52 50 -7 0 -13 4 -13 9 0 5 -13 14 -30 21 -16 7 -30 16 -30 20 0 4 -8 10
-17 13 -23 7 -72 37 -97 60 -11 9 -25 17 -32 17 -7 0 -14 3 -16 8 -1 4 -23 23
-48 42 -25 19 -51 39 -58 45 -31 24 -212 195 -212 200 0 2 -24 28 -52 58 -61
64 -88 95 -88 102 0 3 -8 13 -17 24 -50 52 -73 80 -73 86 0 3 -5 11 -10 18 -6
7 -22 26 -36 42 -14 17 -30 40 -35 53 -5 13 -14 20 -19 17 -6 -4 -9 -3 -8 2 4
11 -84 143 -95 143 -4 0 -5 4 -2 10 3 5 1 10 -5 10 -6 0 -9 4 -6 9 4 5 3 11
-2 13 -11 4 -72 101 -71 111 0 5 -8 15 -18 23 -10 7 -14 14 -10 14 4 0 -1 10
-13 22 -11 12 -20 27 -20 32 -1 11 -84 81 -98 81 -4 0 -12 4 -19 8 -16 10 -67
-38 -60 -57 4 -9 3 -17 -2 -20 -11 -7 -4 -167 8 -179 7 -7 7 -16 0 -29 -6 -11
-6 -18 0 -18 5 0 10 -12 10 -27 2 -51 4 -63 13 -63 5 0 8 -6 6 -12 -3 -17 25
-138 32 -138 3 0 7 -12 8 -27 1 -15 7 -32 12 -37 13 -13 13 -29 1 -21 -5 3 1
-14 13 -37 13 -24 22 -51 20 -61 -1 -9 1 -17 5 -17 6 0 34 -90 31 -99 -1 -2 3
-7 8 -10 6 -3 12 -15 14 -26 1 -11 7 -23 11 -26 4 -3 9 -16 10 -27 1 -12 5
-22 9 -22 4 0 8 -7 8 -15 0 -8 5 -23 10 -33 15 -25 50 -112 47 -116 -1 -2 6
-13 16 -23 9 -11 14 -23 10 -26 -3 -4 -1 -7 6 -7 7 0 9 -4 6 -10 -3 -6 -1 -10
4 -10 6 0 10 -3 9 -7 -2 -12 13 -46 29 -65 8 -9 12 -22 8 -27 -3 -6 -1 -11 4
-11 6 0 11 -7 11 -15 0 -8 4 -15 9 -15 8 0 22 -35 18 -44 -1 -2 5 -12 13 -22
8 -11 49 -86 90 -169 41 -82 80 -153 85 -157 6 -4 7 -8 2 -8 -4 0 4 -18 18
-40 14 -22 25 -46 25 -53 0 -7 9 -23 20 -35 12 -12 18 -22 16 -22 -8 0 115
-244 126 -251 5 -3 8 -9 6 -12 -4 -7 94 -210 105 -218 5 -3 9 -10 8 -15 0 -8
13 -37 75 -168 17 -37 20 -54 13 -68 -5 -10 -6 -18 -1 -18 4 0 8 -9 9 -20 1
-11 -2 -20 -7 -20 -5 0 -6 -8 -3 -17 9 -23 8 -66 -1 -81 -4 -7 -2 -12 4 -12 6
0 8 -5 3 -13 -4 -6 -8 -25 -8 -42 -2 -73 -5 -96 -12 -92 -5 3 -8 -11 -7 -31 0
-21 -2 -41 -5 -47 -6 -11 -9 -26 -16 -70 -12 -84 -18 -105 -27 -111 -6 -4 -5
-10 3 -15 9 -5 9 -9 3 -9 -7 0 -15 -20 -18 -45 -4 -25 -12 -45 -17 -45 -6 0
-8 -4 -5 -8 7 -12 -19 -94 -27 -86 -4 4 -7 2 -7 -4 0 -7 -3 -11 -7 -10 -5 1
-19 -3 -33 -9 -104 -46 -121 -47 -176 -17 -27 15 -54 32 -60 38 -6 6 -21 18
-34 26 -51 35 -91 71 -197 180 -131 134 -137 141 -146 163 -3 9 -11 17 -16 17
-5 0 -13 9 -16 20 -4 11 -11 18 -16 15 -5 -4 -9 1 -9 9 0 9 -5 16 -11 16 -5 0
-7 5 -4 10 3 6 2 10 -4 10 -5 0 -13 9 -16 20 -4 11 -10 18 -15 15 -5 -3 -12 5
-16 17 -4 13 -10 25 -14 28 -3 3 -24 32 -45 65 -22 33 -43 63 -48 66 -5 3 -8
8 -7 10 3 7 -23 59 -30 59 -3 0 -17 23 -29 50 -12 28 -27 50 -32 50 -6 0 -7 4
-4 10 3 6 1 10 -6 10 -7 0 -9 3 -6 7 4 3 3 11 -3 17 -14 18 -114 211 -111 214
5 4 -32 76 -42 83 -4 3 -7 10 -6 15 2 5 -5 25 -13 44 -39 84 -60 135 -63 149
-2 9 -9 30 -16 46 -12 31 -17 44 -22 69 -2 8 -9 21 -16 30 -11 13 -11 16 0 16
10 0 10 3 3 8 -11 7 -19 27 -29 69 -16 69 -39 149 -44 153 -3 3 -7 21 -9 40
-1 19 -8 38 -15 42 -9 6 -8 8 3 8 11 0 11 3 2 12 -7 7 -12 23 -12 36 0 13 -5
32 -10 42 -6 10 -12 31 -14 47 -2 15 -6 35 -9 43 -3 8 -9 29 -13 45 -4 17 -8
35 -10 40 -2 6 -5 19 -7 30 -8 35 -40 110 -50 116 -5 3 -8 9 -7 13 2 11 -24
66 -32 66 -5 0 -8 7 -8 15 0 9 -7 18 -15 21 -8 4 -13 10 -10 14 8 12 -51 51
-82 54 -15 2 -33 -2 -40 -9 -16 -17 -65 -105 -58 -105 3 0 1 -10 -6 -21 -6
-12 -13 -36 -16 -53 -3 -17 -10 -34 -16 -38 -8 -5 -7 -8 3 -8 9 0 11 -3 5 -8
-6 -4 -10 -17 -9 -29 1 -13 -3 -23 -9 -23 -5 0 -4 -7 3 -15 7 -8 8 -15 3 -15
-5 0 -11 -24 -12 -52 -2 -29 -4 -77 -6 -106 -1 -29 -5 -55 -8 -58 -3 -3 -1
-19 3 -35 5 -17 5 -31 -1 -34 -5 -4 -5 -14 1 -26 7 -12 7 -19 1 -19 -6 0 -6
-11 -1 -30 6 -21 5 -30 -3 -30 -8 0 -8 -3 -2 -8 6 -4 11 -25 11 -47 4 -104 12
-231 17 -245 5 -14 18 -108 19 -140 0 -8 6 -21 12 -29 9 -12 8 -13 -3 -6 -11
6 -13 4 -7 -11 4 -10 9 -26 11 -34 3 -16 18 -102 20 -110 0 -3 4 -11 8 -17 5
-8 3 -13 -5 -13 -8 0 -9 -3 -3 -8 11 -8 16 -24 20 -62 2 -14 4 -25 5 -25 3 0
10 -39 14 -80 2 -22 7 -48 11 -57 3 -9 7 -22 9 -30 1 -7 6 -19 10 -27 7 -10 5
-12 -5 -6 -8 5 -5 -1 5 -13 11 -12 16 -22 13 -22 -4 0 -2 -11 3 -25 6 -16 6
-27 -2 -31 -7 -4 -8 -3 -4 4 4 7 1 12 -6 12 -8 0 -22 14 -32 31 -10 16 -33 45
-52 64 -19 19 -34 36 -34 39 0 2 -26 31 -57 64 -32 33 -83 89 -113 123 -30 34
-63 69 -72 78 -10 8 -18 22 -18 30 0 8 -3 12 -6 8 -6 -6 -14 2 -89 89 -22 25
-55 62 -72 81 -18 19 -33 36 -33 39 0 3 -66 77 -115 128 -11 12 -20 24 -20 27
0 4 -15 20 -34 38 -18 17 -30 31 -26 31 5 0 -8 16 -28 35 -21 20 -37 40 -37
45 0 6 -4 10 -10 10 -5 0 -10 7 -10 17 0 9 -3 14 -6 10 -3 -3 -22 15 -42 41
-19 26 -38 49 -42 52 -4 3 -19 23 -34 44 -14 21 -26 35 -26 30 0 -4 -16 15
-36 44 -20 29 -41 52 -45 52 -5 0 -9 7 -9 15 0 8 -4 15 -10 15 -5 0 -10 7 -10
16 0 8 -4 12 -10 9 -5 -3 -10 1 -10 9 0 9 -4 16 -10 16 -5 0 -10 6 -10 14 0 8
-7 16 -15 20 -8 3 -15 10 -15 16 0 9 -25 42 -57 75 -7 7 -9 15 -6 19 4 3 0 6
-7 6 -7 0 -11 3 -7 6 3 3 -4 16 -16 29 -12 12 -30 35 -39 51 -27 45 -42 67
-55 82 -7 7 -13 17 -13 21 0 4 -9 18 -20 31 -11 12 -17 27 -14 31 3 5 1 9 -4
9 -12 0 -53 80 -46 91 3 5 -1 9 -8 9 -8 0 -20 16 -27 36 -9 25 -22 39 -42 46
-16 5 -29 14 -29 20 0 5 -4 7 -9 4 -5 -4 -11 -3 -13 1 -4 10 -80 47 -90 45 -5
-1 -8 3 -8 9 0 5 -4 7 -10 4 -6 -3 -10 -1 -10 4 0 6 -4 11 -10 11 -5 0 -35 12
-67 27 -32 14 -60 27 -63 27 -3 1 -12 5 -20 11 -8 5 -26 10 -39 11 -14 2 -27
8 -29 14 -2 5 -15 10 -28 10 -13 0 -24 5 -24 10 0 6 -3 9 -7 8 -12 -2 -103 26
-103 32 0 3 -11 6 -25 6 -14 1 -33 5 -43 10 -9 4 -19 8 -22 8 -19 5 -108 29
-120 33 -15 6 -64 14 -87 16 -7 0 -13 4 -13 8 0 4 -10 7 -22 7 -25 1 -69 7
-108 17 -27 6 -104 17 -132 18 -10 1 -18 4 -18 7 0 3 -15 5 -32 5 -18 -1 -37
1 -43 4 -11 6 -37 9 -102 13 -24 1 -43 5 -43 8 0 3 -19 6 -43 6 -55 2 -100 9
-113 16 -5 4 -22 5 -37 4 -15 -2 -27 1 -27 6 0 5 -3 7 -8 4 -4 -2 -30 0 -57 6
-28 5 -56 10 -62 11 -7 0 -13 4 -13 9 0 5 -5 6 -10 3 -6 -4 -18 -1 -27 7 -14
11 -16 11 -8 -2 7 -12 6 -13 -7 -3 -8 7 -18 10 -21 6 -4 -3 -7 -1 -7 6 0 6 -6
11 -12 10 -7 -1 -29 4 -48 12 -19 7 -38 12 -42 11 -5 -1 -8 2 -8 8 0 5 -7 10
-15 10 -8 0 -15 5 -15 11 0 5 -5 7 -10 4 -5 -3 -10 -1 -10 6 0 7 -3 10 -6 6
-4 -3 -12 -1 -20 6 -31 27 -44 38 -44 33 0 -2 -15 10 -33 27 -19 18 -33 33
-31 35 1 2 -13 20 -31 40 -19 20 -32 40 -29 44 3 4 0 8 -6 8 -6 0 -15 12 -21
28 -6 15 -17 40 -25 56 -8 16 -14 35 -14 43 0 7 -5 13 -11 13 -5 0 -7 5 -4 10
3 6 3 16 -2 23 -7 11 -9 17 -16 52 -2 8 -6 17 -9 21 -4 3 -4 12 -1 20 3 8 1
14 -3 14 -5 0 -10 15 -11 33 -4 44 -7 60 -17 76 -7 10 -6 12 4 6 10 -6 11 -4
4 6 -4 8 -10 21 -11 29 -8 49 -18 193 -27 368 -1 29 2 56 8 59 10 7 41 11 116
17 25 2 68 7 95 11 28 3 66 8 85 11 19 3 46 7 60 9 14 2 41 6 60 9 19 3 46 8
60 11 14 3 41 8 60 11 19 3 39 8 43 11 4 2 20 6 35 8 33 5 105 22 110 25 1 2
7 4 12 5 6 1 13 4 18 5 4 1 10 2 14 1 4 0 19 4 33 9 14 5 36 12 48 14 12 2 41
11 64 19 22 9 44 13 47 10 3 -4 6 -1 6 6 0 7 3 10 8 8 4 -3 18 0 32 6 14 5 31
11 37 13 19 3 152 54 200 75 23 11 44 19 47 19 3 0 44 18 91 40 47 22 90 40
96 40 5 0 9 5 9 10 0 6 3 9 8 8 8 -2 124 53 132 63 3 4 15 9 28 13 12 4 22 12
22 17 0 6 4 8 9 5 5 -3 14 1 21 9 7 8 19 15 26 15 8 0 14 5 14 10 0 6 9 10 20
10 11 0 20 5 20 10 0 6 7 10 15 10 8 0 15 5 15 10 0 6 7 10 15 10 8 0 15 5 15
10 0 6 7 10 15 10 8 0 15 5 15 11 0 5 4 8 9 5 5 -3 14 1 21 9 7 8 30 25 51 37
22 12 39 25 39 30 0 4 7 8 15 8 8 0 15 5 15 10 0 6 4 10 10 10 9 0 35 19 65
47 8 7 16 13 20 13 3 0 11 4 18 10 53 43 93 78 113 98 13 12 28 22 33 22 6 0
14 6 18 13 4 6 29 31 55 54 25 23 43 44 40 47 -3 3 0 6 7 6 15 0 210 200 279
287 12 15 36 45 53 65 17 20 29 38 27 40 -2 2 12 18 30 36 18 18 30 32 27 32
-3 0 -1 6 5 13 30 35 80 107 75 107 -3 0 3 10 15 22 11 12 20 28 20 35 0 7 4
13 8 13 9 0 64 91 62 103 -1 5 7 16 17 25 10 9 19 24 21 32 2 8 7 17 11 20 4
3 20 33 36 68 16 34 33 62 37 62 4 0 8 9 8 19 0 11 5 23 10 26 6 4 8 11 5 16
-4 5 -1 9 4 9 6 0 11 9 11 20 0 11 5 20 10 20 6 0 9 3 8 8 -1 4 8 29 20 56 13
28 25 60 28 73 4 13 10 23 15 23 4 0 6 9 4 20 -2 11 0 20 4 20 7 0 31 64 30
80 0 3 7 22 16 43 8 20 13 37 9 37 -3 0 1 7 10 15 8 8 13 24 11 35 -2 11 1 20
7 20 5 0 8 7 4 15 -3 8 -2 15 2 15 4 0 9 12 10 27 1 15 5 29 10 32 4 3 8 15 9
26 3 26 9 47 16 65 4 8 9 31 11 50 3 19 6 37 7 40 3 6 4 13 14 68 4 23 12 42
17 42 5 0 6 4 3 10 -7 12 12 127 25 152 6 11 6 19 0 23 -7 4 -7 13 0 24 5 10
11 37 12 60 2 22 5 41 8 41 3 0 6 19 7 43 1 23 5 53 8 65 4 18 2 22 -7 16 -7
-4 -5 2 5 13 11 12 14 24 9 27 -8 5 -9 41 -2 41 4 0 8 59 10 155 2 58 7 112
11 121 5 9 4 20 -2 26 -8 8 -8 17 0 31 6 12 8 23 3 26 -4 2 -9 55 -10 118 -2
62 -7 117 -12 122 -5 5 -5 18 0 31 5 13 6 25 3 28 -3 3 -7 23 -9 44 -8 89 -15
150 -20 177 -4 16 -7 43 -9 60 -1 17 -7 42 -13 56 -5 14 -8 28 -5 33 2 4 0 22
-6 40 -6 17 -12 46 -15 62 -2 17 -5 31 -6 33 -2 1 -4 7 -5 12 -1 6 -4 13 -5
18 -1 4 -2 15 -1 25 1 9 -1 17 -6 17 -4 0 -9 11 -9 25 -1 14 -5 33 -9 43 -8
18 -13 34 -19 67 -8 38 -18 65 -26 65 -4 0 -6 11 -5 25 2 14 -1 25 -6 25 -5 0
-8 3 -8 8 1 4 1 9 -1 12 -1 3 -4 16 -6 30 -2 13 -9 27 -15 31 -6 3 -10 9 -10
13 1 3 1 7 0 9 0 1 -2 9 -4 17 -7 33 -40 115 -47 118 -5 2 -8 10 -8 18 0 24
-137 314 -155 326 -5 4 -6 8 -1 8 5 0 3 8 -5 18 -16 19 -36 53 -57 97 -9 17
-24 41 -34 54 -10 13 -15 28 -11 34 3 6 1 7 -5 3 -7 -4 -12 -2 -12 4 0 5 -16
33 -35 60 -19 28 -32 50 -28 50 5 0 0 5 -10 11 -9 5 -26 27 -36 47 -11 20 -34
53 -50 72 -17 19 -31 38 -31 41 0 3 -8 15 -17 26 -10 12 -31 38 -48 59 -16 21
-40 48 -53 61 -13 13 -21 23 -18 23 3 0 -13 19 -34 43 -22 23 -40 46 -40 50 0
5 -4 5 -10 2 -5 -3 -10 -2 -10 4 0 12 -215 228 -285 286 -26 22 -55 47 -64 56
-9 8 -38 33 -66 55 -27 21 -51 42 -53 47 -2 4 -10 7 -18 7 -9 0 -12 5 -9 10 3
6 0 10 -7 10 -7 0 -24 9 -38 21 -51 42 -225 159 -237 159 -6 0 -13 4 -15 8 -3
9 -132 87 -193 117 -22 11 -42 22 -45 25 -16 16 -322 154 -415 186 -38 14 -79
29 -90 34 -20 9 -174 57 -250 79 -68 19 -288 69 -335 76 -25 4 -67 11 -95 16
-27 5 -75 12 -105 15 -30 4 -68 8 -85 10 -188 23 -631 23 -815 -1 -19 -3 -55
-7 -80 -10 -45 -6 -148 -21 -205 -31 -16 -3 -50 -10 -75 -15 -25 -6 -56 -13
-70 -15 -77 -15 -370 -98 -415 -118 -16 -8 -41 -17 -55 -21 -61 -17 -306 -124
-425 -185 -175 -90 -423 -240 -433 -262 -2 -5 -10 -8 -18 -8 -8 0 -14 -4 -14
-8 0 -5 -18 -18 -40 -31 -22 -12 -40 -26 -40 -29 0 -4 -12 -15 -27 -24 -34
-20 -66 -44 -104 -78 -15 -14 -38 -33 -52 -43 -13 -10 -44 -37 -69 -60 -25
-23 -70 -65 -101 -94 -30 -28 -53 -54 -50 -57 4 -3 2 -6 -4 -6 -10 0 -97 -80
-98 -90 0 -3 -26 -31 -57 -62 -31 -32 -55 -58 -53 -58 5 0 -18 -29 -67 -84
-16 -17 -28 -36 -28 -44 0 -7 -4 -10 -10 -7 -5 3 -10 2 -10 -3 0 -8 -11 -23
-50 -69 -5 -7 -10 -17 -10 -22 0 -6 -6 -14 -13 -18 -13 -9 -68 -88 -79 -115
-4 -10 -12 -18 -18 -18 -5 0 -10 -9 -10 -20 0 -11 -4 -20 -9 -20 -11 0 -41
-56 -41 -77 0 -7 -4 -13 -10 -13 -5 0 -12 -11 -16 -25 -3 -13 -12 -29 -20 -36
-8 -6 -11 -15 -8 -20 3 -5 0 -9 -6 -9 -6 0 -8 -4 -5 -10 3 -5 2 -10 -2 -10 -5
0 -22 -26 -38 -57 -17 -32 -34 -61 -38 -64 -5 -3 -8 -8 -6 -10 5 -9 -13 -49
-22 -49 -6 0 -7 -4 -4 -10 3 -5 2 -10 -4 -10 -6 0 -8 -7 -5 -15 4 -8 1 -15 -5
-15 -6 0 -10 -3 -9 -7 1 -5 -6 -22 -15 -40 -9 -18 -17 -39 -17 -48 0 -8 -4
-15 -10 -15 -5 0 -10 -8 -10 -18 0 -10 -7 -28 -16 -40 -8 -12 -13 -22 -9 -22
3 0 -1 -13 -10 -30 -8 -16 -16 -33 -16 -37 -2 -10 -9 -30 -25 -72 -8 -18 -12
-37 -9 -41 3 -5 0 -10 -6 -12 -7 -2 -13 -13 -13 -24 -1 -11 -4 -24 -8 -29 -3
-6 -9 -23 -13 -40 -5 -16 -9 -32 -10 -35 -21 -70 -36 -130 -37 -147 -1 -7 -5
-13 -9 -13 -4 0 -6 -8 -5 -17 2 -9 -3 -36 -10 -60 -7 -24 -10 -43 -7 -43 3 0
1 -6 -4 -12 -6 -7 -10 -20 -11 -28 0 -17 -8 -68 -20 -126 -5 -22 -8 -48 -6
-57 1 -9 -1 -17 -6 -17 -4 0 -7 -16 -5 -35 1 -20 -2 -38 -6 -41 -5 -2 -6 -11
-3 -19 3 -7 1 -23 -6 -34 -7 -14 -7 -21 -1 -21 7 0 7 -9 2 -22 -4 -13 -7 -38
-5 -55 1 -18 -1 -33 -5 -33 -3 0 -6 -35 -5 -78 0 -42 -3 -84 -7 -93 -5 -9 -3
-21 3 -27 7 -7 8 -12 2 -12 -11 0 -10 -52 1 -69 3 -6 2 -11 -3 -11 -5 0 -9 -7
-9 -15 0 -8 4 -15 9 -15 5 0 4 -8 -1 -19 -6 -10 -8 -21 -5 -23 11 -12 12 -48
1 -48 -8 0 -8 -3 -2 -8 10 -7 12 -28 16 -147 1 -27 5 -60 10 -73 6 -17 6 -21
-3 -16 -6 4 -8 3 -5 -3 7 -12 15 -62 19 -125 1 -21 5 -38 9 -38 3 0 5 -16 4
-36 -1 -19 2 -37 5 -39 4 -2 8 -19 9 -37 2 -18 3 -41 4 -50 1 -10 4 -18 7 -18
4 0 6 -10 5 -22 -1 -13 2 -29 7 -35 6 -7 8 -20 4 -28 -3 -8 -1 -15 4 -15 5 0
7 -7 4 -15 -4 -8 -2 -15 4 -15 5 0 8 -10 7 -22 -1 -13 2 -34 8 -48 5 -14 12
-34 14 -45 9 -39 11 -50 13 -50 3 0 12 -39 13 -57 1 -10 6 -18 11 -18 5 0 6
-3 3 -7 -4 -3 -2 -12 3 -19 6 -6 10 -16 8 -20 -1 -5 3 -18 9 -29 6 -11 12 -23
12 -27 8 -47 15 -68 23 -68 6 0 8 -6 5 -14 -3 -7 1 -23 9 -35 8 -11 13 -21 10
-21 -3 0 1 -12 9 -27 8 -15 12 -30 9 -35 -3 -4 0 -8 6 -8 6 0 8 -4 5 -10 -3
-5 -3 -10 2 -10 8 0 33 -62 35 -87 1 -7 5 -13 9 -13 8 0 20 -31 16 -41 -1 -4
6 -16 16 -27 10 -11 19 -29 20 -41 1 -11 4 -21 7 -21 4 0 17 -24 30 -52 12
-29 30 -61 38 -70 8 -10 11 -18 6 -18 -5 0 -1 -5 9 -11 9 -6 15 -14 12 -20 -4
-5 0 -12 9 -15 9 -3 12 -12 9 -21 -4 -11 -2 -14 5 -9 8 5 12 0 12 -13 0 -12 3
-21 8 -21 7 0 32 -47 32 -62 0 -10 83 -132 93 -136 4 -2 5 -8 1 -13 -3 -5 2
-12 10 -15 9 -3 16 -12 16 -20 0 -8 5 -14 10 -14 6 0 10 -6 10 -12 0 -7 14
-27 30 -45 17 -18 30 -35 30 -38 0 -4 6 -12 13 -19 6 -7 21 -25 32 -41 11 -15
29 -37 40 -49 11 -12 19 -24 17 -28 -1 -5 5 -8 15 -8 9 0 14 -3 11 -6 -7 -7
24 -43 162 -186 130 -135 120 -125 177 -175 80 -71 108 -93 116 -93 5 0 5 -4
2 -10 -3 -5 -2 -10 4 -10 5 0 25 -13 43 -30 18 -16 36 -30 40 -30 3 0 13 -7
22 -15 26 -26 106 -85 115 -85 5 0 11 -4 13 -8 6 -18 308 -212 328 -212 6 0
10 -4 10 -10 0 -5 9 -10 20 -10 11 0 20 -4 20 -8 0 -5 24 -19 53 -33 28 -13
54 -26 57 -29 3 -3 33 -18 68 -34 34 -16 62 -32 62 -36 0 -5 58 -30 63 -27 1
1 17 -8 35 -21 17 -13 32 -20 32 -15 0 4 4 4 8 -2 9 -13 99 -55 117 -55 8 0
15 -4 15 -9 0 -5 10 -11 23 -14 12 -3 67 -21 121 -41 55 -19 103 -33 108 -30
4 3 8 0 8 -6 0 -7 6 -10 13 -7 6 2 27 -2 44 -10 18 -7 35 -13 38 -13 3 0 18
-3 35 -6 26 -6 29 -10 23 -33 -3 -14 -10 -27 -15 -29 -4 -2 -8 -12 -8 -23 0
-10 -5 -19 -11 -19 -6 0 -9 -7 -5 -15 3 -8 2 -15 -3 -15 -8 0 -24 -37 -22 -52
0 -3 -6 -12 -14 -18 -8 -7 -15 -21 -15 -31 0 -11 -4 -19 -10 -19 -5 0 -7 -7
-4 -15 4 -8 1 -15 -5 -15 -6 0 -11 -7 -11 -15 0 -8 -5 -15 -12 -15 -6 0 -8 -3
-5 -6 3 -4 -3 -18 -13 -32 -11 -13 -20 -31 -20 -38 0 -8 -7 -14 -16 -14 -14 0
-14 -3 -4 -15 10 -12 9 -15 -5 -15 -10 0 -15 -3 -12 -6 6 -6 -19 -61 -33 -74
-3 -3 -18 -25 -32 -50 -15 -25 -35 -55 -45 -68 -31 -40 -103 -115 -103 -108 0
4 -12 -2 -26 -13 -15 -12 -32 -21 -38 -21 -6 0 -42 -16 -79 -36 -37 -19 -67
-32 -67 -27 0 4 -4 2 -9 -5 -4 -7 -18 -14 -29 -15 -12 -1 -22 -5 -22 -10 0 -4
-4 -5 -10 -2 -5 3 -10 1 -10 -4 0 -6 -8 -11 -18 -11 -10 0 -22 -3 -26 -7 -3
-4 -12 -8 -19 -9 -7 -1 -32 -7 -57 -14 -25 -7 -56 -14 -69 -17 -14 -2 -29 -7
-34 -10 -6 -3 -22 -8 -36 -10 -14 -2 -33 -5 -41 -7 -9 -1 -20 -5 -26 -8 -6 -4
-23 -9 -38 -12 -15 -3 -43 -10 -62 -16 -18 -6 -38 -9 -44 -5 -5 3 -10 1 -10
-4 0 -6 -3 -10 -7 -9 -5 1 -20 -2 -34 -6 -14 -4 -34 -9 -45 -11 -10 -2 -21 -4
-24 -6 -3 -1 -9 -3 -15 -4 -5 -2 -12 -4 -15 -5 -15 -6 -48 -12 -67 -14 -13 0
-23 -5 -23 -9 0 -5 -6 -7 -12 -4 -7 2 -20 1 -29 -4 -9 -4 -27 -10 -40 -13 -13
-3 -39 -9 -56 -15 -18 -5 -33 -7 -33 -4 0 3 -6 1 -12 -4 -7 -6 -21 -9 -30 -8
-10 2 -18 0 -18 -5 0 -4 -21 -11 -47 -16 -53 -8 -52 -8 -73 -17 -8 -4 -26 -9
-40 -11 -14 -3 -25 -5 -25 -6 0 -1 -11 -4 -60 -14 -5 -1 -16 -5 -22 -9 -7 -5
-13 -5 -13 -1 0 3 -6 2 -12 -3 -7 -6 -21 -9 -30 -8 -10 2 -18 -2 -18 -8 0 -7
-10 4 -22 23 -12 19 -21 38 -20 43 1 4 -2 7 -6 7 -5 0 -17 18 -27 40 -10 22
-22 40 -27 40 -5 0 -7 4 -4 9 3 4 -3 19 -14 31 -11 12 -22 31 -25 41 -4 11
-11 19 -16 19 -6 0 -8 3 -5 8 6 10 -56 8 -72 -2 -7 -4 -12 -4 -12 1 0 10 -52
9 -68 -1 -7 -4 -12 -3 -12 2 0 4 -21 7 -47 5 -73 -6 -86 -5 -94 9 -5 7 -9 9
-9 5 0 -7 -55 27 -70 43 -3 3 -10 6 -16 7 -5 1 -50 25 -98 52 -48 28 -92 51
-97 51 -5 0 -9 5 -9 12 0 6 -3 8 -6 5 -4 -4 -20 3 -35 14 -16 11 -29 17 -29
14 0 -3 -13 3 -29 14 -16 12 -36 21 -44 21 -9 0 -19 5 -22 11 -4 6 -12 8 -19
6 -13 -5 -38 18 -29 27 4 3 -1 14 -10 24 -9 10 -18 27 -20 38 -2 10 -9 30 -14
44 -6 14 -9 28 -6 33 2 4 -1 7 -8 7 -7 0 -10 3 -6 6 3 4 0 22 -8 40 -8 19 -11
34 -7 34 3 0 1 5 -5 11 -6 6 -9 18 -6 25 3 8 0 14 -5 14 -6 0 -9 9 -7 20 2 11
0 20 -6 20 -5 0 -8 3 -8 8 1 4 1 9 -1 12 -2 6 -11 61 -12 78 -1 6 -4 12 -8 12
-6 0 -10 24 -13 68 0 12 -4 22 -7 22 -4 0 -7 6 -7 13 -3 36 -10 74 -18 86 -4
8 -8 32 -9 55 0 23 -3 43 -7 46 -4 3 -8 23 -10 45 -1 22 -8 46 -13 54 -9 12
-8 13 3 6 11 -6 12 -5 5 6 -5 8 -9 25 -10 39 0 14 -4 31 -8 38 -4 7 -3 12 3
12 7 0 7 8 1 25 -6 16 -6 25 0 25 18 0 -14 73 -48 110 -12 14 -25 33 -28 43
-3 9 -10 17 -15 17 -5 0 -9 9 -9 20 0 11 -7 20 -16 20 -8 0 -13 4 -10 8 3 5
-2 18 -12 28 -9 10 -23 30 -30 44 -20 39 -37 66 -50 82 -6 8 -9 18 -5 21 3 4
2 7 -3 7 -6 0 -18 20 -28 45 -11 25 -23 45 -28 45 -4 0 -7 3 -6 8 0 4 -2 15
-5 25 -4 9 -10 25 -14 35 -3 9 -7 20 -7 24 -1 3 -4 9 -8 13 -4 4 -4 14 -1 23
4 10 2 13 -5 8 -9 -5 -9 -1 -2 18 6 17 6 26 -1 26 -6 0 -6 7 1 20 6 11 7 20 3
20 -4 0 2 7 13 15 18 13 17 14 -13 21 -18 3 -33 10 -33 15 0 5 -6 9 -13 9 -8
0 -27 6 -43 14 -16 8 -51 24 -79 36 -27 12 -72 32 -100 44 -27 13 -80 36 -117
51 -38 16 -68 33 -68 38 0 4 -5 5 -11 2 -5 -4 -20 1 -31 12 -14 12 -19 13 -13
3 7 -12 5 -12 -11 1 -10 9 -29 20 -42 24 -12 3 -20 11 -17 16 4 5 2 9 -2 9 -8
0 -12 15 -15 58 -1 6 -4 12 -8 12 -5 0 -9 18 -12 58 -1 6 -4 12 -8 12 -3 0 -7
14 -8 32 -2 17 -6 36 -10 42 -5 6 -8 20 -7 31 0 11 -3 30 -7 41 -6 20 -11 49
-24 134 -7 53 -16 168 -18 230 0 36 -5 71 -10 79 -6 9 -5 12 1 8 6 -4 11 14
12 46 3 65 9 122 11 122 2 0 4 9 5 20 1 11 6 36 10 55 3 19 9 47 12 63 3 15
10 27 15 27 5 0 7 4 4 8 -3 5 1 20 9 35 8 15 12 27 9 27 -2 0 2 14 11 30 9 17
13 30 10 30 -4 0 0 7 7 15 31 34 36 43 31 49 -4 3 -1 6 5 6 7 0 12 6 12 13 0
10 50 75 77 99 4 5 25 24 46 43 20 19 42 35 47 35 6 0 10 3 10 8 0 6 62 46 68
43 1 -1 10 5 18 14 9 8 23 15 33 15 9 0 23 6 29 13 7 6 16 12 20 13 27 3 62
18 62 26 0 5 -8 22 -18 36 -10 15 -24 39 -31 54 -8 15 -21 36 -30 46 -9 10
-17 24 -19 32 -2 8 -8 18 -14 21 -5 3 -9 8 -7 10 1 2 -17 45 -41 94 -25 50
-43 93 -42 98 1 4 -3 7 -10 7 -6 0 -9 3 -5 6 3 4 0 19 -8 34 -8 15 -11 30 -8
34 4 3 1 6 -6 6 -7 0 -11 7 -8 15 4 8 2 17 -3 20 -6 4 -10 19 -10 36 0 16 -3
29 -8 29 -12 0 -6 124 7 128 6 2 9 8 6 12 -3 5 4 15 16 24 22 15 22 15 -22 55
-24 22 -47 41 -51 41 -5 0 -8 4 -8 10 0 5 -12 22 -27 38 -16 16 -37 42 -48 57
-11 16 -24 33 -30 39 -5 6 -11 17 -12 24 -2 6 -12 21 -23 32 -11 11 -20 27
-20 35 0 8 -4 15 -10 15 -5 0 -10 7 -10 15 0 8 -5 15 -11 15 -5 0 -7 5 -4 10
3 6 1 10 -5 10 -6 0 -9 4 -6 9 4 5 3 11 -1 13 -10 4 -47 80 -45 91 1 4 -3 7
-9 7 -6 0 -9 7 -5 15 3 8 1 15 -5 15 -6 0 -9 7 -5 15 3 8 2 15 -3 15 -4 0 -8
7 -9 15 -1 8 -3 22 -4 30 -1 8 -4 15 -8 15 -4 0 -7 6 -8 13 0 6 -3 28 -7 47
-4 19 -8 53 -10 75 -2 22 -4 40 -5 40 -1 0 -4 30 -5 68 -1 37 1 67 4 67 4 0 7
17 8 38 1 20 3 48 6 62 3 14 8 39 12 55 3 17 9 39 12 50 4 11 8 23 9 28 1 4 2
8 4 10 1 1 3 9 5 17 2 8 9 29 16 45 15 38 19 75 6 75 -5 0 -7 7 -3 15 3 8 1
15 -5 15 -6 0 -7 5 -4 10 3 6 2 10 -3 10 -9 0 -26 55 -23 73 0 4 -4 7 -11 7
-6 0 -9 3 -6 6 4 3 0 21 -8 40 -8 19 -11 34 -8 34 4 0 2 6 -3 13 -6 6 -11 19
-11 27 0 8 -3 33 -7 55 -9 54 -14 317 -7 330 4 5 7 26 8 45 1 19 5 47 8 63 3
15 8 37 11 50 3 12 7 31 9 42 2 11 9 32 15 48 6 15 8 27 5 27 -4 0 -1 7 6 15
7 8 9 15 5 15 -4 0 -2 7 5 15 7 8 9 15 4 15 -4 0 -3 5 4 12 7 7 12 21 12 32 0
12 7 30 15 40 8 10 12 22 10 27 -3 4 -1 10 5 14 5 3 10 15 10 26 0 10 5 19 10
19 6 0 9 3 8 8 0 4 6 24 15 44 10 21 17 42 17 48 0 5 5 10 11 10 5 0 8 4 4 9
-3 5 1 16 9 24 8 8 12 17 9 21 -3 3 2 8 11 12 9 3 13 10 10 15 -3 5 0 9 6 9 6
0 9 4 6 9 -3 4 8 29 24 55 17 26 30 51 30 57 0 5 7 12 15 15 8 4 13 9 10 14
-2 4 4 16 15 27 10 12 16 23 13 27 -3 3 2 8 11 12 9 3 13 10 10 15 -3 5 0 9 5
9 6 0 11 7 11 15 0 9 7 18 15 21 8 4 12 10 9 15 -3 5 0 9 5 9 6 0 11 7 11 15
0 8 5 15 10 15 6 0 10 7 10 15 0 8 5 15 10 15 6 0 10 4 10 10 0 9 13 28 45 64
6 6 23 30 39 54 16 23 33 42 37 42 5 0 8 3 7 8 -2 4 4 15 12 25 41 48 67 79
90 107 66 83 176 204 254 283 54 55 58 61 52 95 -3 20 -7 46 -9 57 -1 11 -6
25 -9 31 -4 5 -5 19 -4 30 2 10 0 24 -4 29 -6 9 -7 250 0 250 1 0 3 12 4 27 1
15 5 30 8 33 4 4 4 13 1 21 -3 8 -1 14 4 14 4 0 9 14 9 31 1 17 7 35 14 39 6
4 11 10 10 14 -4 15 12 66 21 66 6 0 7 5 4 10 -3 6 -1 10 5 10 6 0 9 4 6 9 -6
10 16 61 27 61 4 0 7 7 7 15 0 8 5 15 11 15 5 0 8 4 5 8 -3 5 3 18 12 28 10
10 19 24 20 29 2 6 12 20 22 33 11 12 20 25 20 29 0 7 3 10 72 86 73 80 84 91
133 135 l48 42 -241 0 c-223 0 -240 -1 -238 -17z m945 -9762 c16 -16 32 -27
36 -23 19 18 -9 -42 -30 -64 -14 -15 -30 -39 -37 -55 -7 -16 -16 -29 -20 -29
-5 0 -8 -6 -8 -14 0 -8 -12 -29 -27 -48 -15 -18 -20 -27 -10 -19 20 16 23 8 3
-11 -14 -14 -57 -104 -70 -145 -7 -22 -8 -22 -42 12 -19 19 -34 38 -34 42 0 5
-9 15 -20 23 -11 8 -20 20 -20 27 0 7 -6 13 -14 13 -15 0 -17 28 -3 45 27 34
97 149 97 160 0 8 8 19 18 24 9 6 13 11 9 11 -10 0 14 25 28 29 6 2 16 8 24
14 7 6 20 12 28 13 9 2 20 7 26 13 18 18 36 13 66 -18z m-459 -722 c0 -5 5 -7
10 -4 6 3 10 1 10 -5 0 -6 5 -8 10 -5 6 3 10 1 10 -4 0 -6 3 -10 8 -9 11 4 72
-26 72 -35 0 -5 5 -5 10 -2 12 8 9 -32 -3 -52 -5 -7 -10 -23 -12 -35 -3 -13
-9 -24 -15 -26 -6 -2 -8 -8 -4 -13 3 -5 0 -9 -5 -9 -6 0 -11 6 -11 13 0 7 -10
24 -22 37 -13 14 -22 27 -22 30 2 9 -19 50 -26 50 -7 0 -18 28 -16 42 1 4 -8
14 -19 22 -20 15 -20 15 3 16 12 0 22 -5 22 -11z"/>
</g>
</svg>
